<?xml version="1.0" encoding="utf-8"?>
<!-- Generator: Adobe Illustrator 25.0.1, SVG Export Plug-In . SVG Version: 6.00 Build 0)  -->
<svg version="1.1" id="Layer_1" xmlns="http://www.w3.org/2000/svg" xmlns:xlink="http://www.w3.org/1999/xlink" x="0px" y="0px"
	 viewBox="0 0 213 78" style="enable-background:new 0 0 213 78;" xml:space="preserve">
<style type="text/css">
	.st0{fill:none;stroke:#3098DC;}
	.st1{fill-rule:evenodd;clip-rule:evenodd;fill:#FEFEFE;}
	.st2{fill-rule:evenodd;clip-rule:evenodd;fill:#D9F0FF;}
	.st3{fill:#B7B5B1;}
	.st4{fill:#244B81;}
	.st5{fill:#FFFFFF;}
	.st6{fill-rule:evenodd;clip-rule:evenodd;fill:#3098DC;}
	.st7{fill:#D8F0FE;stroke:#3098DC;}
</style>
<path class="st0" d="M103.3,32l6.1,5.3l-6.1,5.3 M96,37.2h13.5"/>
<path class="st1" d="M202.5,76.2h-83.4c-0.5,0-1-0.1-1.4-0.3c-0.4-0.2-0.8-0.5-1.2-0.8c-0.3-0.3-0.6-0.7-0.8-1.2
	c-0.2-0.4-0.3-0.9-0.3-1.4V4.7c0-0.5,0.1-1,0.3-1.4c0.2-0.4,0.5-0.9,0.8-1.2c0.3-0.3,0.7-0.6,1.2-0.8c0.4-0.2,0.9-0.3,1.4-0.3h83.4
	c0.5,0,1,0.1,1.4,0.3c0.4,0.2,0.8,0.5,1.2,0.8c0.3,0.3,0.6,0.7,0.8,1.2c0.2,0.4,0.3,0.9,0.3,1.4v67.8c0,0.5-0.1,1-0.3,1.4
	c-0.2,0.4-0.5,0.9-0.8,1.2c-0.3,0.3-0.7,0.6-1.2,0.8C203.5,76.1,203,76.2,202.5,76.2z"/>
<path class="st0" d="M202.5,76.2h-83.4c-0.5,0-1-0.1-1.4-0.3c-0.4-0.2-0.8-0.5-1.2-0.8c-0.3-0.3-0.6-0.7-0.8-1.2
	c-0.2-0.4-0.3-0.9-0.3-1.4V4.7c0-0.5,0.1-1,0.3-1.4c0.2-0.4,0.5-0.9,0.8-1.2c0.3-0.3,0.7-0.6,1.2-0.8c0.4-0.2,0.9-0.3,1.4-0.3h83.4
	c0.5,0,1,0.1,1.4,0.3c0.4,0.2,0.8,0.5,1.2,0.8c0.3,0.3,0.6,0.7,0.8,1.2c0.2,0.4,0.3,0.9,0.3,1.4v67.8c0,0.5-0.1,1-0.3,1.4
	c-0.2,0.4-0.5,0.9-0.8,1.2c-0.3,0.3-0.7,0.6-1.2,0.8C203.5,76.1,203,76.2,202.5,76.2L202.5,76.2z"/>
<path class="st2" d="M210.7,76.6h-99.5c-0.2,0-0.3,0-0.5-0.1c-0.1-0.1-0.3-0.2-0.4-0.3c-0.1-0.1-0.2-0.2-0.3-0.4
	c-0.1-0.1-0.1-0.3-0.1-0.5v-4.5c0-0.7,0.5-1.2,1.2-1.2h99.5c0.7,0,1.2,0.5,1.2,1.2v4.5C211.9,76.1,211.4,76.6,210.7,76.6z"/>
<path class="st0" d="M210.7,76.6h-99.5c-0.2,0-0.3,0-0.5-0.1c-0.1-0.1-0.3-0.2-0.4-0.3c-0.1-0.1-0.2-0.2-0.3-0.4
	c-0.1-0.1-0.1-0.3-0.1-0.5v-4.5c0-0.7,0.5-1.2,1.2-1.2h99.5c0.7,0,1.2,0.5,1.2,1.2v4.5C211.9,76.1,211.4,76.6,210.7,76.6z"/>
<path class="st1" d="M119.8,64.7h82.4V5.9h-82.4V64.7z"/>
<path class="st0" d="M119.8,64.7h82.4V5.9h-82.4V64.7z"/>
<path class="st1" d="M163.4,52.5h-5.1c-0.1,0-0.2,0-0.2-0.1l-3-2.1l-1.3-1.1l-7.3,2c-0.1,0-0.2,0-0.3,0c-0.1-0.1-0.2-0.1-0.2-0.3
	l-2.1-7.3c0-0.1,0-0.2,0-0.3l2.2-7.1l-1.3-1.6c0,0-0.1-0.1-0.1-0.2c0-0.1,0-0.1,0-0.2c0-0.1,0-0.1,0.1-0.2c0-0.1,0.1-0.1,0.1-0.1
	l0.2-0.2l-0.7-0.6c0,0-0.1-0.1-0.1-0.2c0-0.1,0-0.1,0-0.2c0-0.1,0-0.1,0-0.2c0-0.1,0.1-0.1,0.1-0.1l0.4-0.3l-0.6-0.5
	c-0.1,0-0.1-0.1-0.1-0.2c0-0.1,0-0.1,0-0.2c0-0.1,0-0.1,0-0.2c0-0.1,0.1-0.1,0.1-0.2l0.5-0.3l-1.1-5.2c0-0.1,0-0.2,0-0.2l1.6-5
	c0-0.1,0-0.1,0.1-0.1c0,0,0.1-0.1,0.1-0.1c0.1,0,0.1,0,0.2,0c0.1,0,0.1,0,0.2,0l10.7,4h8.8l10.7-4c0.1,0,0.1,0,0.2,0
	c0.1,0,0.1,0,0.2,0c0.1,0,0.1,0.1,0.1,0.1c0,0,0.1,0.1,0.1,0.2l1.6,5c0,0.1,0,0.2,0,0.2l-1.1,5.2l0.4,0.3c0.1,0,0.1,0.1,0.1,0.2
	c0,0.1,0,0.1,0,0.2s0,0.1,0,0.2c0,0.1-0.1,0.1-0.1,0.2l-0.6,0.5l0.4,0.3c0.1,0.1,0.2,0.2,0.2,0.3c0,0.1,0,0.1,0,0.2
	c0,0.1-0.1,0.1-0.1,0.2l-0.7,0.6l0.2,0.2c0,0,0.1,0.1,0.1,0.1c0,0.1,0.1,0.1,0.1,0.2c0,0.1,0,0.1,0,0.2c0,0.1,0,0.1-0.1,0.2
	l-1.3,1.6l2.3,7.1c0,0.1,0,0.2,0,0.3l-2.1,7.3c0,0.1-0.1,0.2-0.2,0.3c-0.1,0.1-0.2,0.1-0.3,0l-7.3-2l-1.4,1.1l-3,2.1
	C163.6,52.4,163.5,52.5,163.4,52.5z"/>
<g id="Layer_2">
	<g id="Shape_1_3_">
		<g>
			<path class="st3" d="M177.7,34.5c-3.9-22.4-33.1-18.1-33.6,0c1.7,0.9,2.7,1.4,2.7,1.4s-0.9,0.5-2.8,1.7
				c3.4,21.9,32.1,18.8,33.6,0c-1.8-1.1-2.8-1.7-2.8-1.7S175.7,35.5,177.7,34.5z M163.3,42.3l-2.7-4.7l-2.8,4.7l-2.1-0.1l4-6.7
				l-3.6-5.8l2.2-0.2l2.5,4.3l2.5-4.1l2,0l-3.3,5.7l3.7,6.8L163.3,42.3z"/>
		</g>
	</g>
	<g id="Shape_1_2_">
		<g>
			<path class="st4" d="M176.3,33.6c-5.2-19.9-29.2-14.5-30.9,0c3.3,1.9,4.1,2.3,4.1,2.3s-1.3,0.8-4.1,2.6
				c3.6,19.1,29.5,15.4,30.9,0c-2.6-1.6-4.2-2.6-4.2-2.6S175.7,34,176.3,33.6z M163.3,42.3l-2.7-4.7l-2.8,4.7l-2.1-0.1l4-6.7
				l-3.6-5.8l2.2-0.2l2.5,4.3l2.5-4.1l2,0l-3.3,5.7l3.7,6.8L163.3,42.3z"/>
		</g>
	</g>
</g>
<path class="st0" d="M9,3.5h52c4.7,0,8.5,3.8,8.5,8.5v52c0,4.7-3.8,8.5-8.5,8.5H9c-4.7,0-8.5-3.8-8.5-8.5V12C0.5,7.3,4.3,3.5,9,3.5z
	"/>
<path class="st5" d="M67.1,23.8c0-1.3,1.1-2.4,2.4-2.4c1.3,0,2.4,1.1,2.4,2.4v28.5c0,1.3-1.1,2.4-2.4,2.4c-1.3,0-2.4-1.1-2.4-2.4
	V23.8z"/>
<path class="st6" d="M71.2,52.3V23.8c0-1-0.8-1.7-1.7-1.7c-1,0-1.7,0.8-1.7,1.7v28.5c0,1,0.8,1.7,1.7,1.7
	C70.4,54.1,71.2,53.3,71.2,52.3z M69.5,21.4c-1.3,0-2.4,1.1-2.4,2.4v28.5c0,1.3,1.1,2.4,2.4,2.4c1.3,0,2.4-1.1,2.4-2.4V23.8
	C71.9,22.5,70.8,21.4,69.5,21.4z"/>
<path class="st7" d="M70.2,25.4h19.7c0.9,0,1.6,0.7,1.6,1.6v22.9c0,0.9-0.7,1.6-1.6,1.6H70.2V25.4z"/>
<path class="st6" d="M46,72V3h1v69H46z"/>
<rect x="7" y="10" class="st7" width="33" height="56"/>
</svg>
