<?xml version="1.0" encoding="utf-8"?>
<!-- Generator: Adobe Illustrator 25.0.1, SVG Export Plug-In . SVG Version: 6.00 Build 0)  -->
<svg version="1.1" id="Layer_1" xmlns="http://www.w3.org/2000/svg" xmlns:xlink="http://www.w3.org/1999/xlink" x="0px" y="0px"
     viewBox="0 0 60 45" style="enable-background:new 0 0 60 45;" xml:space="preserve">
<style type="text/css">
    .st0{fill:#8E9EB0;}
    .st1{fill:none;stroke:#8E9EB0;stroke-width:0.7383;stroke-miterlimit:10;}
    .st2{fill:#B8B5B1;}
    .st3{fill:#254C82;}
</style>
<g>
    <path class="st0" d="M44.8,27.9c-0.5,0-0.8,0.4-0.8,0.8c0,0.5,0.4,0.8,0.8,0.8c0.5,0,0.8-0.4,0.8-0.8
        C45.6,28.3,45.3,27.9,44.8,27.9z"/>
    <path class="st0" d="M48.6,27.9c-0.5,0-0.8,0.4-0.8,0.8c0,0.5,0.4,0.8,0.8,0.8c0.5,0,0.8-0.4,0.8-0.8
        C49.5,28.3,49.1,27.9,48.6,27.9z"/>
    <path class="st0" d="M52.5,27.9c-0.5,0-0.8,0.4-0.8,0.8c0,0.5,0.4,0.8,0.8,0.8c0.5,0,0.8-0.4,0.8-0.8
        C53.3,28.3,52.9,27.9,52.5,27.9z"/>
    <path class="st1" d="M52.2,21.6h-8.6c-3.8,0-7,3.1-7,7v0.1c0,3.5,2.6,6.4,6,6.9v2.6l4-2.5h5.7c3.8,0,7-3.1,7-7v-0.1
        C59.2,24.7,56,21.6,52.2,21.6z"/>
</g>
<g id="Layer_2">
    <g id="Layer_2_1_">
        <g id="Shape_1_3_">
            <g>
                <path class="st2" d="M42.8,20.5C37.8-8,0.7-2.5,0,20.5c2.2,1.1,3.5,1.8,3.5,1.8S2.4,23,0,24.4c4.3,27.9,40.8,23.9,42.8,0
                    c-2.3-1.4-3.6-2.2-3.6-2.2S40.2,21.8,42.8,20.5z M24.5,30.4l-3.5-6l-3.6,6l-2.6-0.2l5-8.5l-4.6-7.3l2.8-0.2l3.2,5.4l3.2-5.2
                    l2.5,0.1l-4.2,7.2l4.7,8.6L24.5,30.4z"/>
            </g>
        </g>
        <g id="Shape_1_2_">
            <g>
                <path class="st3" d="M41.1,19.4C34.5-6,3.8,0.9,1.8,19.4c4.2,2.4,5.2,3,5.2,3s-1.7,1.1-5.2,3.4c4.6,24.4,37.5,19.7,39.3,0
                    c-3.4-2-5.3-3.2-5.3-3.2S40.2,19.9,41.1,19.4z M24.5,30.4l-3.5-6l-3.6,6l-2.6-0.2l5-8.5l-4.6-7.3l2.8-0.2l3.2,5.4l3.2-5.2
                    l2.5,0.1l-4.2,7.2l4.7,8.6L24.5,30.4z"/>
            </g>
        </g>
    </g>
</g>
</svg>