<?xml version="1.0" encoding="utf-8"?>
<!-- Generator: Adobe Illustrator 25.0.1, SVG Export Plug-In . SVG Version: 6.00 Build 0)  -->
<svg version="1.1" id="Layer_1" xmlns="http://www.w3.org/2000/svg" xmlns:xlink="http://www.w3.org/1999/xlink" x="0px" y="0px"
	 viewBox="0 0 296 114" style="enable-background:new 0 0 296 114;" xml:space="preserve">
<style type="text/css">
	.st0{clip-path:url(#SVGID_2_);}
	.st1{fill:#F2F4F6;}
	.st2{opacity:0.8;}
	.st3{fill:#E27625;stroke:#E27625;stroke-width:7.6522;stroke-linecap:round;stroke-linejoin:round;}
	.st4{fill:#763E1A;stroke:#763E1A;stroke-width:7.6522;stroke-linecap:round;stroke-linejoin:round;}
	.st5{fill:url(#SVGID_3_);}
	.st6{clip-path:url(#SVGID_5_);}
	.st7{opacity:0.5;fill:url(#SVGID_6_);fill-opacity:0.75;stroke:#FFFFFF;stroke-width:0.3949;enable-background:new    ;}
	.st8{opacity:0.5;fill:url(#SVGID_7_);fill-opacity:0.5;stroke:#FFFFFF;stroke-width:0.4749;enable-background:new    ;}
	.st9{opacity:0.5;fill:url(#SVGID_8_);fill-opacity:0.5;stroke:#FFFFFF;stroke-width:0.3949;enable-background:new    ;}
	.st10{opacity:0.5;fill:url(#SVGID_9_);stroke:#FFFFFF;stroke-width:0.3949;enable-background:new    ;}
	.st11{fill:#0376C9;fill-opacity:0.58;}
	.st12{fill:#FFFFFF;}
	.st13{fill:none;stroke:#ADD5F3;stroke-width:0.5;}
	.st14{fill:none;stroke:#D1E8FA;stroke-width:0.5;}
	.st15{fill:none;stroke:#ADD5F3;stroke-width:0.7982;}
	.st16{fill:#B7B5B1;}
	.st17{fill:#244B81;}
</style>
<g>
	<defs>
		<path id="SVGID_1_" d="M8,0h280c4.4,0,8,3.6,8,8v98c0,4.4-3.6,8-8,8H8c-4.4,0-8-3.6-8-8V8C0,3.6,3.6,0,8,0z"/>
	</defs>
	<clipPath id="SVGID_2_">
		<use xlink:href="#SVGID_1_"  style="overflow:visible;"/>
	</clipPath>
	<g class="st0">
		<path class="st1" d="M8,0h280c4.4,0,8,3.6,8,8v98c0,4.4-3.6,8-8,8H8c-4.4,0-8-3.6-8-8V8C0,3.6,3.6,0,8,0z"/>
		<g class="st2">
			<path class="st3" d="M277.7,215.3L152.4,402.9L598.6,423L583.8-53.6L277.7,215.3z"/>
			<path class="st4" d="M-293-294.6l67.3,320.9L-268.7,58l64.2,48l-48.5,37.2l63.4,57.4l-39.9,28.7l91.6,106.2l415.7-120.1L572-31.1
				L-192.8-593L-293-294.6z"/>
		</g>
		
			<linearGradient id="SVGID_3_" gradientUnits="userSpaceOnUse" x1="164" y1="116.4" x2="164" y2="-19.6" gradientTransform="matrix(1 0 0 -1 0 116.4)">
			<stop  offset="0" style="stop-color:#D2E9FF"/>
			<stop  offset="1" style="stop-color:#2F93DC"/>
		</linearGradient>
		<rect y="0" class="st5" width="328" height="136"/>
		<g>
			<defs>
				<rect id="SVGID_4_" x="11" y="5" width="262" height="130.9"/>
			</defs>
			<clipPath id="SVGID_5_">
				<use xlink:href="#SVGID_4_"  style="overflow:visible;"/>
			</clipPath>
			<g class="st6">
				
					<radialGradient id="SVGID_6_" cx="-144.7206" cy="482.3784" r="1" gradientTransform="matrix(-22.1973 42.0281 89.7104 47.381 -46322.4336 -16679.9492)" gradientUnits="userSpaceOnUse">
					<stop  offset="0" style="stop-color:#FFFFFF;stop-opacity:0"/>
					<stop  offset="1" style="stop-color:#EBEBEB"/>
				</radialGradient>
				<path class="st7" d="M253.9,140.6c-6.1,11.5-21.6,16.7-41.8,15.7c-20.2-1-45.1-8.1-69.9-21.2c-24.8-13.1-44.7-29.6-56.9-45.8
					C73.2,73.2,68.7,57.5,74.8,46s21.6-16.7,41.8-15.7c20.2,1,45.1,8.1,69.9,21.2c24.8,13.1,44.7,29.6,56.9,45.8
					C255.5,113.4,259.9,129.1,253.9,140.6z"/>
				
					<radialGradient id="SVGID_7_" cx="-145.6087" cy="482.5548" r="1" gradientTransform="matrix(-26.6864 50.5276 84.6928 44.7309 -44612.3438 -14149.8223)" gradientUnits="userSpaceOnUse">
					<stop  offset="0" style="stop-color:#FFFFFF;stop-opacity:0"/>
					<stop  offset="1" style="stop-color:#EBEBEB"/>
				</radialGradient>
				<path class="st8" d="M226.8,122.7c-7.3,13.8-23.4,21.5-43.5,22.5c-20.1,1-44.2-4.5-67.6-16.8S74.3,99.2,63.8,82
					c-10.5-17.2-13.2-34.7-5.9-48.6c7.3-13.8,23.4-21.5,43.5-22.5c20.1-1,44.2,4.5,67.6,16.8c23.4,12.3,41.5,29.1,52,46.3
					C231.4,91.3,234.2,108.8,226.8,122.7z"/>
				
					<radialGradient id="SVGID_8_" cx="-140.1224" cy="478.9657" r="1" gradientTransform="matrix(19.7097 34.1381 102.8933 -59.4055 -46374.1953 33321.1094)" gradientUnits="userSpaceOnUse">
					<stop  offset="0" style="stop-color:#FFFFFF;stop-opacity:0"/>
					<stop  offset="1" style="stop-color:#EBEBEB"/>
				</radialGradient>
				<path class="st9" d="M249.1,25.1c2.7,4.6,2.4,10.7-0.4,17.8c-2.8,7.1-8.2,15.1-15.8,23.5c-15,16.9-38.5,35.6-66.9,52
					c-28.4,16.4-56.3,27.4-78.5,32c-11.1,2.3-20.7,3-28.2,1.9c-7.5-1.1-12.9-3.9-15.6-8.5c-2.7-4.6-2.4-10.7,0.4-17.8
					c2.8-7.1,8.2-15.1,15.8-23.5c15-16.9,38.5-35.6,66.9-52c28.4-16.4,56.3-27.4,78.5-32c11.1-2.3,20.7-3,28.2-1.9
					C241.1,17.6,246.5,20.4,249.1,25.1z"/>
				
					<radialGradient id="SVGID_9_" cx="-136.3514" cy="480.2778" r="1" gradientTransform="matrix(3.0448 27.4766 123.5358 -13.6893 -58769.8984 10409.9365)" gradientUnits="userSpaceOnUse">
					<stop  offset="0" style="stop-color:#FFFFFF;stop-opacity:0"/>
					<stop  offset="1" style="stop-color:#EBEBEB"/>
				</radialGradient>
				<path class="st10" d="M269.8,75.1c0.2,1.8-0.4,3.7-1.9,5.7c-1.4,1.9-3.6,3.9-6.6,5.9c-5.9,4-14.6,7.9-25.5,11.6
					c-21.8,7.4-52.3,13.9-86.4,17.7c-34.1,3.8-65.3,4.1-88.2,1.6c-11.4-1.2-20.8-3.2-27.4-5.8c-3.3-1.3-5.9-2.7-7.7-4.3
					c-1.8-1.6-2.9-3.3-3.1-5.1c-0.2-1.8,0.4-3.7,1.9-5.7c1.4-1.9,3.6-3.9,6.6-5.9c5.9-4,14.6-7.9,25.5-11.6
					c21.8-7.4,52.3-13.9,86.4-17.7c34.1-3.8,65.3-4.1,88.2-1.6c11.4,1.2,20.8,3.2,27.4,5.8c3.3,1.3,5.9,2.7,7.7,4.3
					C268.6,71.6,269.6,73.3,269.8,75.1z"/>
				<path class="st11" d="M46,72.9L46,72.9c5.6,0,10.1,4.5,10.1,10.1v0c0,5.6-4.5,10.1-10.1,10.1h0c-5.6,0-10.1-4.5-10.1-10.1v0
					C35.9,77.5,40.5,72.9,46,72.9z"/>
				<path class="st12" d="M50.5,79.2l-3.9-2c-0.4-0.2-0.9-0.2-1.3,0l-3.9,2c-0.3,0.2-0.5,0.4-0.5,0.8c0,0.3,0.2,0.6,0.5,0.8l3.9,2
					c0.2,0.1,0.4,0.2,0.7,0.2c0.2,0,0.4-0.1,0.7-0.2l3.9-2c0.3-0.2,0.5-0.4,0.5-0.8C51,79.6,50.8,79.3,50.5,79.2z"/>
				<path class="st12" d="M44.9,83.3l-3.5-1.9c-0.3-0.1-0.7,0-0.9,0.1C40.2,81.7,40,82,40,82.3v3.3c0,0.6,0.3,1.1,0.8,1.4l3.6,1.9
					c0.1,0.1,0.3,0.1,0.4,0.1c0.2,0,0.3,0,0.5-0.1c0.3-0.2,0.4-0.6,0.4-0.9v-3.3C45.7,84.1,45.4,83.6,44.9,83.3z"/>
				<path class="st12" d="M51.6,81.6c-0.3-0.2-0.7-0.3-1-0.1l-3.5,1.9c-0.5,0.3-0.8,0.8-0.8,1.4V88c0,0.3,0.2,0.8,0.4,0.9
					c0.1,0.1,0.3,0.1,0.5,0.1c0.1,0,0.3,0,0.4-0.1l3.6-1.9c0.5-0.3,0.8-0.8,0.8-1.4v-3.3C52.1,82,51.9,81.7,51.6,81.6z"/>
				<path class="st13" d="M46,72.9L46,72.9c5.6,0,10.1,4.5,10.1,10.1v0c0,5.6-4.5,10.1-10.1,10.1h0c-5.6,0-10.1-4.5-10.1-10.1v0
					C35.9,77.5,40.5,72.9,46,72.9z"/>
				<path class="st11" d="M169,15.9L169,15.9c5.6,0,10.1,4.5,10.1,10.1v0c0,5.6-4.5,10.1-10.1,10.1h0c-5.6,0-10.1-4.5-10.1-10.1v0
					C158.9,20.5,163.5,15.9,169,15.9z"/>
				<path class="st12" d="M173.5,22.2l-3.9-2c-0.4-0.2-0.9-0.2-1.3,0l-3.9,2c-0.3,0.2-0.5,0.4-0.5,0.8c0,0.3,0.2,0.6,0.5,0.8l3.9,2
					c0.2,0.1,0.4,0.2,0.7,0.2c0.2,0,0.4-0.1,0.7-0.2l3.9-2c0.3-0.2,0.5-0.4,0.5-0.8C174,22.6,173.8,22.3,173.5,22.2z"/>
				<path class="st12" d="M167.9,26.3l-3.5-1.9c-0.3-0.1-0.7,0-0.9,0.1c-0.3,0.2-0.4,0.4-0.4,0.7v3.3c0,0.6,0.3,1.1,0.9,1.4l3.6,1.9
					c0.1,0.1,0.3,0.1,0.4,0.1c0.2,0,0.3,0,0.5-0.1c0.3-0.2,0.4-0.6,0.4-0.9v-3.3C168.7,27.1,168.4,26.6,167.9,26.3z"/>
				<path class="st12" d="M174.6,24.6c-0.3-0.2-0.7-0.3-1-0.1l-3.5,1.9c-0.5,0.3-0.8,0.8-0.8,1.4V31c0,0.3,0.2,0.8,0.4,0.9
					c0.1,0.1,0.3,0.1,0.5,0.1c0.1,0,0.3,0,0.4-0.1l3.6-1.9c0.5-0.3,0.9-0.8,0.9-1.4v-3.3C175.1,25,174.9,24.7,174.6,24.6z"/>
				<path class="st14" d="M169,15.9L169,15.9c5.6,0,10.1,4.5,10.1,10.1v0c0,5.6-4.5,10.1-10.1,10.1h0c-5.6,0-10.1-4.5-10.1-10.1v0
					C158.9,20.5,163.5,15.9,169,15.9z"/>
				<path class="st11" d="M77,6.9L77,6.9c5.6,0,10.1,4.5,10.1,10.1v0c0,5.6-4.5,10.1-10.1,10.1h0c-5.6,0-10.1-4.5-10.1-10.1v0
					C66.9,11.5,71.5,6.9,77,6.9z"/>
				<path class="st12" d="M81.5,13.2l-3.9-2c-0.4-0.2-0.9-0.2-1.3,0l-3.9,2c-0.3,0.2-0.5,0.4-0.5,0.8c0,0.3,0.2,0.6,0.5,0.8l3.9,2
					c0.2,0.1,0.4,0.2,0.7,0.2s0.4-0.1,0.7-0.2l3.9-2c0.3-0.2,0.5-0.4,0.5-0.8C82,13.6,81.8,13.3,81.5,13.2z"/>
				<path class="st12" d="M75.9,17.3l-3.5-1.9c-0.3-0.1-0.7,0-0.9,0.1C71.2,15.7,71,16,71,16.3v3.3c0,0.6,0.3,1.1,0.8,1.4l3.6,1.9
					c0.1,0.1,0.3,0.1,0.4,0.1c0.2,0,0.3,0,0.5-0.1c0.3-0.2,0.4-0.6,0.4-0.9v-3.3C76.7,18.1,76.4,17.6,75.9,17.3z"/>
				<path class="st12" d="M82.6,15.6c-0.3-0.2-0.7-0.3-1-0.1l-3.5,1.9c-0.5,0.3-0.8,0.8-0.8,1.4V22c0,0.3,0.2,0.8,0.4,0.9
					c0.1,0.1,0.3,0.1,0.5,0.1c0.1,0,0.3,0,0.4-0.1l3.6-1.9c0.5-0.3,0.8-0.8,0.8-1.4v-3.3C83.1,16,82.9,15.7,82.6,15.6z"/>
				<path class="st14" d="M77,6.9L77,6.9c5.6,0,10.1,4.5,10.1,10.1v0c0,5.6-4.5,10.1-10.1,10.1h0c-5.6,0-10.1-4.5-10.1-10.1v0
					C66.9,11.5,71.5,6.9,77,6.9z"/>
				<path class="st11" d="M239,7.9L239,7.9c5.6,0,10.1,4.5,10.1,10.1v0c0,5.6-4.5,10.1-10.1,10.1h0c-5.6,0-10.1-4.5-10.1-10.1v0
					C228.9,12.5,233.5,7.9,239,7.9z"/>
				<path class="st12" d="M243.5,14.2l-3.9-2c-0.4-0.2-0.9-0.2-1.3,0l-3.9,2c-0.3,0.2-0.5,0.4-0.5,0.8c0,0.3,0.2,0.6,0.5,0.8l3.9,2
					c0.2,0.1,0.4,0.2,0.7,0.2c0.2,0,0.4-0.1,0.7-0.2l3.9-2c0.3-0.2,0.5-0.4,0.5-0.8C244,14.6,243.8,14.3,243.5,14.2z"/>
				<path class="st12" d="M237.9,18.3l-3.5-1.9c-0.3-0.1-0.7,0-0.9,0.1c-0.3,0.2-0.4,0.4-0.4,0.7v3.3c0,0.6,0.3,1.1,0.9,1.4l3.6,1.9
					c0.1,0.1,0.3,0.1,0.4,0.1c0.2,0,0.3,0,0.5-0.1c0.3-0.2,0.4-0.6,0.4-0.9v-3.3C238.7,19.1,238.4,18.6,237.9,18.3z"/>
				<path class="st12" d="M244.6,16.6c-0.3-0.2-0.7-0.3-1-0.1l-3.5,1.9c-0.5,0.3-0.8,0.8-0.8,1.4V23c0,0.3,0.2,0.8,0.4,0.9
					c0.1,0.1,0.3,0.1,0.5,0.1c0.1,0,0.3,0,0.4-0.1l3.6-1.9c0.5-0.3,0.9-0.8,0.9-1.4v-3.3C245.1,17,244.9,16.7,244.6,16.6z"/>
				<path class="st14" d="M239,7.9L239,7.9c5.6,0,10.1,4.5,10.1,10.1v0c0,5.6-4.5,10.1-10.1,10.1h0c-5.6,0-10.1-4.5-10.1-10.1v0
					C228.9,12.5,233.5,7.9,239,7.9z"/>
				<path class="st11" d="M244,84.1L244,84.1c5.5,0,9.9,4.4,9.9,9.9v0c0,5.5-4.4,9.9-9.9,9.9h0c-5.5,0-9.9-4.4-9.9-9.9v0
					C234.1,88.5,238.5,84.1,244,84.1z"/>
				<path class="st12" d="M248.5,90.2l-3.9-2c-0.4-0.2-0.9-0.2-1.3,0l-3.9,2c-0.3,0.2-0.5,0.4-0.5,0.8c0,0.3,0.2,0.6,0.5,0.8l3.9,2
					c0.2,0.1,0.4,0.2,0.7,0.2c0.2,0,0.4-0.1,0.7-0.2l3.9-2c0.3-0.2,0.5-0.4,0.5-0.8C249,90.6,248.8,90.3,248.5,90.2z"/>
				<path class="st12" d="M242.9,94.3l-3.5-1.9c-0.3-0.1-0.7,0-0.9,0.1c-0.3,0.2-0.4,0.4-0.4,0.7v3.3c0,0.6,0.3,1.1,0.9,1.4l3.6,1.9
					c0.1,0.1,0.3,0.1,0.4,0.1c0.2,0,0.3,0,0.5-0.1c0.3-0.2,0.4-0.6,0.4-0.9v-3.3C243.7,95.1,243.4,94.6,242.9,94.3z"/>
				<path class="st12" d="M249.6,92.6c-0.3-0.2-0.7-0.3-1-0.1l-3.5,1.9c-0.5,0.3-0.8,0.8-0.8,1.4V99c0,0.3,0.2,0.8,0.4,0.9
					c0.1,0.1,0.3,0.1,0.5,0.1c0.1,0,0.3,0,0.4-0.1l3.6-1.9c0.5-0.3,0.9-0.8,0.9-1.4v-3.3C250.1,93,249.9,92.7,249.6,92.6z"/>
				<path class="st15" d="M244,84.1L244,84.1c5.5,0,9.9,4.4,9.9,9.9v0c0,5.5-4.4,9.9-9.9,9.9h0c-5.5,0-9.9-4.4-9.9-9.9v0
					C234.1,88.5,238.5,84.1,244,84.1z"/>
			</g>
		</g>
		<g>
			<g id="Shape_1_3_">
				<g>
					<path class="st16" d="M209.6,91.8c-14.2-82.1-121.4-66.2-123.3,0C92.5,95,96.4,97,96.4,97s-3.3,2-10.1,6.3
						c12.4,80.5,117.7,68.8,123.3-0.1c-6.7-4.1-10.4-6.3-10.4-6.3S202.4,95.4,209.6,91.8z M156.9,120.5l-10.1-17.3l-10.2,17.3
						l-7.7-0.5l14.5-24.5l-13.1-21.2l7.9-0.7l9.3,15.7l9.3-15l7.4,0.2L152,95.2l13.5,25.1L156.9,120.5z"/>
				</g>
			</g>
			<g id="Shape_1_2_">
				<g>
					<path class="st17" d="M204.6,88.6c-19.2-73-107.3-53.2-113.3,0c12.2,6.9,15,8.5,15,8.5s-4.7,3-15,9.6
						c13.1,70.2,108.1,56.7,113.3-0.1c-9.6-6-15.2-9.5-15.2-9.5S202.3,89.8,204.6,88.6z M156.9,120.6l-10.1-17.3l-10.2,17.3
						l-7.7-0.5l14.5-24.5l-13.1-21.2l7.9-0.7l9.3,15.7l9.3-15l7.4,0.2L152,95.3l13.5,25L156.9,120.6z"/>
				</g>
			</g>
		</g>
	</g>
</g>
</svg>
