<?xml version="1.0" encoding="utf-8"?>
<!-- Generator: Adobe Illustrator 25.0.1, SVG Export Plug-In . SVG Version: 6.00 Build 0)  -->
<svg version="1.1" id="Layer_1" xmlns="http://www.w3.org/2000/svg" xmlns:xlink="http://www.w3.org/1999/xlink" x="0px" y="0px"
	 viewBox="0 0 169 237" style="enable-background:new 0 0 169 237;" xml:space="preserve">
<style type="text/css">
	.st0{fill:url(#SVGID_1_);}
	.st1{fill:url(#SVGID_2_);}
	.st2{fill:url(#SVGID_3_);}
	.st3{fill:url(#SVGID_4_);}
	.st4{fill:url(#SVGID_5_);}
	.st5{fill:#86E29B;}
	.st6{fill:#FFD33D;}
	.st7{fill:url(#SVGID_6_);}
	.st8{fill:url(#SVGID_7_);}
	.st9{fill:url(#SVGID_8_);}
	.st10{fill:url(#SVGID_9_);}
	.st11{fill:#CFD3D6;}
	.st12{fill:#BBC0C5;}
	.st13{fill:url(#SVGID_10_);}
	.st14{fill:#DDA37C;}
	.st15{fill:#24292E;}
	.st16{fill:#6A737D;}
	.st17{fill:#666666;}
	.st18{fill:url(#SVGID_11_);}
	.st19{fill:url(#SVGID_12_);}
	.st20{fill:url(#SVGID_13_);}
	.st21{fill:url(#SVGID_14_);}
	.st22{fill:#FFFFFF;}
	.st23{fill:url(#SVGID_15_);}
	.st24{fill:#43AEFC;}
	.st25{fill:url(#SVGID_16_);}
	.st26{fill:url(#SVGID_17_);}
	.st27{fill:#B7B5B1;}
	.st28{fill:#244B81;}
	.st29{fill:url(#SVGID_18_);}
	.st30{fill:url(#SVGID_19_);}
	.st31{fill:url(#SVGID_20_);}
	.st32{fill:url(#SVGID_21_);}
	.st33{fill:url(#SVGID_22_);}
	.st34{fill:url(#SVGID_23_);}
	.st35{fill:url(#SVGID_24_);}
	.st36{fill:url(#SVGID_25_);}
	.st37{fill:url(#SVGID_26_);}
	.st38{fill:url(#SVGID_27_);}
	.st39{fill:url(#SVGID_28_);}
	.st40{fill:url(#SVGID_29_);}
	.st41{fill:url(#SVGID_30_);}
	.st42{fill:url(#SVGID_31_);}
	.st43{fill:url(#SVGID_32_);}
	.st44{fill:url(#SVGID_33_);}
	.st45{fill:url(#SVGID_34_);}
	.st46{fill:url(#SVGID_35_);}
	.st47{fill:url(#SVGID_36_);}
	.st48{fill:url(#SVGID_37_);}
	.st49{fill:url(#SVGID_38_);}
	.st50{fill:url(#SVGID_39_);}
	.st51{fill:url(#SVGID_40_);}
	.st52{fill:url(#SVGID_41_);}
	.st53{fill:url(#SVGID_42_);}
	.st54{fill:url(#SVGID_43_);}
	.st55{fill:url(#SVGID_44_);}
	.st56{fill:url(#SVGID_45_);}
	.st57{fill:url(#SVGID_46_);}
	.st58{fill:url(#SVGID_47_);}
	.st59{fill:url(#SVGID_48_);}
</style>
<linearGradient id="SVGID_1_" gradientUnits="userSpaceOnUse" x1="133.9995" y1="220.4181" x2="133.9995" y2="32.636" gradientTransform="matrix(1 0 0 -1 0 238.4)">
	<stop  offset="0" style="stop-color:#75C4FD"/>
	<stop  offset="1" style="stop-color:#75C4FD"/>
</linearGradient>
<path class="st0" d="M134,62c0.8,0,1.4-0.6,1.4-1.4c0-0.8-0.6-1.4-1.4-1.4c-0.8,0-1.4,0.6-1.4,1.4C132.6,61.4,133.2,62,134,62z"/>
<linearGradient id="SVGID_2_" gradientUnits="userSpaceOnUse" x1="101.2398" y1="220.4193" x2="101.2398" y2="32.638" gradientTransform="matrix(1 0 0 -1 0 238.4)">
	<stop  offset="0" style="stop-color:#75C4FD"/>
	<stop  offset="1" style="stop-color:#75C4FD"/>
</linearGradient>
<path class="st1" d="M101.2,167.6c0.8,0,1.4-0.6,1.4-1.4s-0.6-1.4-1.4-1.4c-0.8,0-1.4,0.6-1.4,1.4S100.5,167.6,101.2,167.6z"/>
<linearGradient id="SVGID_3_" gradientUnits="userSpaceOnUse" x1="23.2279" y1="220.4164" x2="23.2279" y2="32.636" gradientTransform="matrix(1 0 0 -1 0 238.4)">
	<stop  offset="0" style="stop-color:#75C4FD"/>
	<stop  offset="1" style="stop-color:#75C4FD"/>
</linearGradient>
<path class="st2" d="M23.2,95.5c0.8,0,1.4-0.6,1.4-1.4c0-0.8-0.6-1.4-1.4-1.4c-0.8,0-1.4,0.6-1.4,1.4C21.8,94.8,22.5,95.5,23.2,95.5
	z"/>
<linearGradient id="SVGID_4_" gradientUnits="userSpaceOnUse" x1="14.3224" y1="220.4179" x2="14.3224" y2="32.636" gradientTransform="matrix(1 0 0 -1 0 238.4)">
	<stop  offset="0" style="stop-color:#75C4FD"/>
	<stop  offset="1" style="stop-color:#75C4FD"/>
</linearGradient>
<path class="st3" d="M14.3,101.6c0.8,0,1.4-0.6,1.4-1.4c0-0.8-0.6-1.4-1.4-1.4c-0.8,0-1.4,0.6-1.4,1.4
	C12.9,101,13.5,101.6,14.3,101.6z"/>
<linearGradient id="SVGID_5_" gradientUnits="userSpaceOnUse" x1="155.3485" y1="220.4184" x2="155.3485" y2="32.636" gradientTransform="matrix(1 0 0 -1 0 238.4)">
	<stop  offset="0" style="stop-color:#75C4FD"/>
	<stop  offset="1" style="stop-color:#75C4FD"/>
</linearGradient>
<path class="st4" d="M155.3,132c0.8,0,1.4-0.6,1.4-1.4c0-0.8-0.6-1.4-1.4-1.4c-0.8,0-1.4,0.6-1.4,1.4
	C153.9,131.4,154.6,132,155.3,132z"/>
<path class="st5" d="M161.6,53.6c-4,0-7.2-3.2-7.2-7.2c0-4,3.2-7.2,7.2-7.2c4,0,7.2,3.2,7.2,7.2C168.8,50.4,165.6,53.6,161.6,53.6z
	 M161.6,41.5c-2.7,0-4.9,2.2-4.9,4.9s2.2,4.9,4.9,4.9s4.9-2.2,4.9-4.9S164.3,41.5,161.6,41.5z"/>
<path class="st5" d="M5.1,87.1C2.3,87.1,0,84.8,0,82c0-2.8,2.3-5.1,5.1-5.1c2.8,0,5.1,2.3,5.1,5.1C10.2,84.8,7.9,87.1,5.1,87.1z
	 M5.1,77.9c-2.2,0-4,1.8-4,4c0,2.2,1.8,4,4,4s4-1.8,4-4C9.1,79.7,7.3,77.9,5.1,77.9z"/>
<path class="st6" d="M21.5,138.4c-5.1,0-9.3-4.2-9.3-9.4c0-5.2,4.2-9.4,9.3-9.4c5.1,0,9.3,4.2,9.3,9.4
	C30.9,134.2,26.7,138.4,21.5,138.4z M21.5,121.7c-4,0-7.3,3.3-7.3,7.4s3.3,7.4,7.3,7.4c4,0,7.3-3.3,7.3-7.4S25.6,121.7,21.5,121.7z"
	/>
<linearGradient id="SVGID_6_" gradientUnits="userSpaceOnUse" x1="136.051" y1="90.68" x2="136.051" y2="111.663" gradientTransform="matrix(1 0 0 -1 0 238.4)">
	<stop  offset="0" style="stop-color:#75C4FD"/>
	<stop  offset="0.1001" style="stop-color:#82C3F7"/>
	<stop  offset="1" style="stop-color:#F1B9BE"/>
</linearGradient>
<path class="st7" d="M148.3,138.1c-0.7,1.6-3,1.5-4.7,1.2c-3.1-0.5-6.3-0.9-9.5-1c-0.9,0-2.2,0.3-2,1.2c0.1,0.5,0.6,0.8,0.9,1.1
	c0.7,1-0.4,2.4-1.6,2.6c-1.2,0.2-2.4-0.4-3.5-0.8c-1.3-0.5-2.8-0.8-4.2-0.8v-17.1c2.3,0.1,4.6,0.2,6.8,0.4c0.6,0,1.3,0.1,1.8,0.5
	c0.4,0.3,0.6,0.9,0.9,1.3c1.3,2.3,3.8,3.6,6.3,4.5c2.5,0.9,5.1,1.5,7.2,3.2C147.9,135.3,148.8,136.8,148.3,138.1z"/>
<linearGradient id="SVGID_7_" gradientUnits="userSpaceOnUse" x1="61.3855" y1="231.3199" x2="75.113" y2="231.3199" gradientTransform="matrix(1 0 0 -1 0 238.4)">
	<stop  offset="0" style="stop-color:#FFE566"/>
	<stop  offset="1" style="stop-color:#FFB0EB"/>
</linearGradient>
<path class="st8" d="M62.8,14.2c-0.7-3.2-1.2-6.4-1.4-9.7c-0.1-1.5,0-3.2,1.2-4c0.9-0.6,2.2-0.5,3.1,0c1,0.5,1.7,1.4,2.4,2.3
	c2.7,3.4,5.1,7.2,7,11.2C70.9,13.7,67,13.9,62.8,14.2z"/>
<linearGradient id="SVGID_8_" gradientUnits="userSpaceOnUse" x1="68.3547" y1="130.0627" x2="14.6379" y2="18.2047" gradientTransform="matrix(1 0 0 -1 0 238.4)">
	<stop  offset="0" style="stop-color:#CFD3D6"/>
	<stop  offset="0.6349" style="stop-color:#F3F4F5"/>
	<stop  offset="1" style="stop-color:#FFFFFF;stop-opacity:0"/>
</linearGradient>
<path class="st9" d="M98.8,144c-1.7-1.5-6.1-5.2-11.8-9.6c-10.3-7.9-25-17.7-35.6-19.4c0-0.3-0.1-0.7-0.1-1l0.1-11.5l-0.1-31.9
	c0-5.1-4-9.4-9-9.9l-2.7-0.3c-1.5-0.1-2.8,1-2.8,2.5v24c0,8.6-1.9,17.1-5.6,24.8l-5.6,11.8c-2.3,4.8-3.5,10.1-3.5,15.4v9.4
	c0,5.6,0.1,11.3-0.6,17.3c-0.5,4.1-1.5,8.4-3.2,12.9c-0.9,2.3-9.4,25.6-10.4,28.3L57.4,237l14.2-43.4l0.3-0.2l3.5-1.8
	c6.7-3.4,11.7-9.4,14.1-16.5l1.2-3.6l8.8-26.9C99.5,144.7,99.2,144.4,98.8,144z"/>
<linearGradient id="SVGID_9_" gradientUnits="userSpaceOnUse" x1="69.1788" y1="83.9267" x2="40.0547" y2="20.4567" gradientTransform="matrix(1 0 0 -1 0 238.4)">
	<stop  offset="0" style="stop-color:#BBC0C5"/>
	<stop  offset="0.5694" style="stop-color:#CFD3D6"/>
	<stop  offset="0.9989" style="stop-color:#FFFFFF;stop-opacity:0"/>
</linearGradient>
<path class="st10" d="M98.6,136.6L87,134.4l-35.7-6.5v29.7c0,5.8-4.7,10.4-10.4,10.4c0,0,12.7,1.4,22.3,6.2c5.5,3.3,3.1,12,1.9,15.8
	c-1.4,4.1-15.1,42.3-15.1,42.3l7.6,4.6l14.2-43.4l3.8-2c6.7-3.4,11.7-9.4,14.1-16.5l1.2-3.6l1.6-5.1c0,0,4.1-12.4,6.2-21.8
	c0-0.2,0.1-0.4,0.2-0.7C99.4,141.3,99.3,138.8,98.6,136.6z"/>
<path class="st11" d="M41.2,77.1l-4.4,0V63.4c0-0.4,0-0.8,0.1-1.1c0,0,0-0.1,0-0.1c0,0,0,0,0,0c0.3-0.7,0.9-1.3,1.6-1.5
	c2.8,0.7,5,3.2,5.2,6.2l0.5,6.9C44.5,75.5,43,77.1,41.2,77.1z"/>
<path class="st11" d="M36.8,72.6c2.4,0,4.8,0.3,7.2,1l0.3,0.1v0.1c0,0,0,0,0,0c0.1,1.7-1.1,3.2-2.8,3.3c-0.1,0-0.2,0-0.3,0l-4.4,0
	L36.8,72.6L36.8,72.6z"/>
<path class="st12" d="M137.2,86.9l-48.5,9.6l-2.8-18.8l48.4-7.3c4.5-0.7,8.8,2.5,9.4,7C144.5,81.9,141.5,86,137.2,86.9z"/>
<path class="st12" d="M133.2,54.6L90.8,80.1l-9-16.7l43.1-23.3c4-2.2,9.1-0.7,11.3,3.4C138.3,47.4,136.9,52.3,133.2,54.6z"/>
<path class="st12" d="M133.2,54.6L90.8,80.1l-9-16.7l43.1-23.3c4-2.2,9.1-0.7,11.3,3.4C138.3,47.4,136.9,52.3,133.2,54.6z"/>
<path class="st12" d="M137.2,86.9l-48.5,9.6l-2.8-18.8l48.4-7.3c4.5-0.7,8.8,2.5,9.4,7C144.5,81.9,141.5,86,137.2,86.9z"/>
<path class="st12" d="M133.2,54.6L90.8,80.1l-9-16.7l43.1-23.3c4-2.2,9.1-0.7,11.3,3.4C138.3,47.4,136.9,52.3,133.2,54.6z"/>
<linearGradient id="SVGID_10_" gradientUnits="userSpaceOnUse" x1="142.0544" y1="224.9406" x2="123.6034" y2="198.4618" gradientTransform="matrix(1 0 0 -1 0 238.4)">
	<stop  offset="0" style="stop-color:#75C4FD"/>
	<stop  offset="0.1001" style="stop-color:#82C3F7"/>
	<stop  offset="1" style="stop-color:#F1B9BE"/>
</linearGradient>
<path class="st13" d="M122,30c3.5-2.7,7.3-5,11.3-6.8c1-0.4,2.3-0.8,3.2-0.1c1.1,0.9,0.4,2.8-0.4,3.9c-2.5,3.4-6.2,6.5-6.3,10.8
	c0,1.2,0.3,2.5,0.2,3.7c-0.2,2.7-2.3,4.8-4.3,6.6c-1.2,1.1-2.4,2.3-3.6,3.4C122.3,43.8,122.3,37.8,122,30z"/>
<path class="st14" d="M118.6,119.9h8.6c3.3,0,6-2.7,6-6v-5.7c0-3.3-2.7-6-6-6h-8.6c-3.2,0-5.7,2.6-5.7,5.8v6.3
	C112.8,117.3,115.4,119.9,118.6,119.9z"/>
<path class="st12" d="M118.6,119.9h8.6c3.3,0,6-2.7,6-6v-5.7c0-3.3-2.7-6-6-6h-8.6c-3.2,0-5.7,2.6-5.7,5.8v6.3
	C112.8,117.3,115.4,119.9,118.6,119.9z"/>
<path class="st15" d="M118.1,11.5H56.7c-3.1,0-5.6,2.5-5.6,5.6v139.1c0,3.1,2.5,5.6,5.6,5.6h61.3c3.1,0,5.6-2.5,5.6-5.6V17.1
	C123.7,14,121.2,11.5,118.1,11.5z M90.9,153c0-0.1,0.1-0.2,0.1-0.4c0.6-1.8,1.5-3.8,3.3-4.6c1.8-0.7,3.8,0.1,5.1,1.6
	c0.9,1,1.5,2.1,2,3.4H90.9z"/>
<path class="st16" d="M100.9,158.4H73.9c-0.4,0-0.7-0.3-0.7-0.7c0-0.4,0.3-0.7,0.7-0.7h27.1c0.4,0,0.7,0.3,0.7,0.7
	C101.6,158.1,101.3,158.4,100.9,158.4z"/>
<path class="st16" d="M101.2,16.6H74.6c-0.4,0-0.7-0.3-0.7-0.7c0-0.4,0.3-0.7,0.7-0.7h26.6c0.4,0,0.7,0.3,0.7,0.7
	C101.9,16.3,101.6,16.6,101.2,16.6z"/>
<path class="st15" d="M63.1,19c0.7,0,1.2-0.6,1.2-1.3c0-0.7-0.5-1.3-1.2-1.3c-0.7,0-1.2,0.6-1.2,1.3C61.9,18.4,62.5,19,63.1,19z"/>
<path class="st11" d="M128.1,128.8h4.6c3.3,0,6-2.7,6-6V117c0-3.3-2.7-6-6-6h-4.6c-3.2,0-5.7,2.6-5.7,5.8v6.3
	C122.3,126.2,124.9,128.8,128.1,128.8z"/>
<path class="st11" d="M133.4,101.6c0,0,0,0.1,0,0.1c0,3.1-1.7,5.6-3.6,5.6l-1,0V96h1C131.8,96,133.4,98.5,133.4,101.6z"/>
<path class="st11" d="M129.9,96v11.4c0,0,0,0-0.1,0l-1,0V96H129.9C129.8,96,129.9,96,129.9,96z"/>
<path class="st11" d="M132.5,114.9c1.9,2.9,1.9,7,0,9.9c-0.3,0.5-0.8,0.7-1.3,0.7l-2.4,0v-11.4h2.4
	C131.7,114.2,132.2,114.5,132.5,114.9z"/>
<path class="st11" d="M130.3,114.2v11.4c0,0-0.1,0-0.1,0l-1.4,0v-11.4h1.3C130.2,114.2,130.2,114.2,130.3,114.2z"/>
<path class="st17" d="M79.2,143.8c-3.9,1.4-7.9,3.2-12,2.4c-3.1-0.7-5.9-3-7.1-6c-1.2-3-0.7-6.6,1.2-9.2c1.3-1.8,3.3-3.1,5.2-4.2
	c0.9-0.5,1.9-0.9,2.8-1.4c-0.3-1.1-0.4-2.3-0.5-3.5c-1.6-1.2-3.3-2.1-5.3-2.4c-3-0.4-6.1,0.8-8.5,2.7c-0.1,0.1-0.3,0.2-0.5,0.4v27.4
	c0,1.6,1.2,2.9,2.7,2.9h33.4c0-0.1,0.1-0.2,0.1-0.4c0.6-1.8,1.5-3.8,3.3-4.6c0.6-0.3,1.3-0.3,1.9-0.2c-1.8-1.1-3.2-3.1-5.1-4.3
	C87.6,141.4,83.1,142.4,79.2,143.8z"/>
<linearGradient id="SVGID_11_" gradientUnits="userSpaceOnUse" x1="84.9643" y1="125.188" x2="84.9643" y2="76.138" gradientTransform="matrix(1 0 0 -1 0 238.4)">
	<stop  offset="4.776980e-03" style="stop-color:#FFFFFF"/>
	<stop  offset="0.3219" style="stop-color:#E6E6E6"/>
	<stop  offset="0.75" style="stop-color:#808080"/>
</linearGradient>
<path class="st18" d="M104.2,133c1.1-1.8,3.1-2.9,3.9-4.8c1.3-3,3-2.4,1.8-5.5c-0.4-1.1-1.1-2.3-1.6-3.3c-1.6-0.2-2.7-1.4-4.3-1
	c-3,0.7-6.3,3.6-8.9,5.2c-0.9,0.6-3.8,0-4.7,0.7c0,1.6-0.2,4.5-0.4,6c-0.4,2.9,0.7,5.6-1.4,7.6c-2.1,2-5.6,2.7-8,1.2
	c-1.4-0.9-2.3-2.3-3-3.7c-0.8-1.5-1.6-3.1-2.3-4.6c-0.9,0-1.7-0.2-2.6-0.6c-1.8-0.9-2.8-2.6-3.3-4.6c-0.9,0.4-1.9,0.9-2.8,1.4
	c-2,1.1-3.9,2.4-5.2,4.2c-1.9,2.6-2.4,6.2-1.2,9.2c1.2,3,3.9,5.3,7.1,6c4,0.8,8.1-1,12-2.4c3.9-1.4,8.4-2.5,11.9-0.3
	c1.9,1.1,3.3,3.1,5.1,4.3c0.7,0.1,1.4,0.4,2.1,0.8c0,0,0.1,0,0.1,0c3.4,0.4,6.1-3.3,6.2-6.8c0-0.4,0-0.7,0-1.1
	C103.3,138.3,102.8,135.3,104.2,133z"/>
<path class="st17" d="M98.4,148.7c0,0-0.1,0-0.1,0c0.4,0.3,0.8,0.6,1.1,1c0.9,1,1.5,2.1,2,3.4h15.8c0.9,0,1.8-0.5,2.2-1.3
	c-5.6-1-10.8-4.4-14-9.3c-0.3-0.5-0.6-1.1-0.9-1.6c0,0.4,0,0.7,0,1.1C104.5,145.4,101.8,149.1,98.4,148.7z"/>
<linearGradient id="SVGID_12_" gradientUnits="userSpaceOnUse" x1="97.5609" y1="94.965" x2="97.5609" y2="128.96" gradientTransform="matrix(1 0 0 -1 0 238.4)">
	<stop  offset="0" style="stop-color:#75C4FD"/>
	<stop  offset="0.1001" style="stop-color:#82C3F7"/>
	<stop  offset="1" style="stop-color:#F1B9BE"/>
</linearGradient>
<path class="st19" d="M103.9,105.7c0.4-0.7-0.7-0.3-1.8,0.2c-0.6,0.1-1.1,0.2-1.7,0.3c-6.2,1.4-11.7,6.1-14,12.1
	c-1.5,3.9-1.7,3.2-3.5,7c-1.4,2.9-4.6,5.4-7.7,5.5c0.8,1.5,1.5,3.1,2.3,4.6c0.8,1.4,1.7,2.8,3,3.7c2.4,1.6,5.9,0.8,8-1.2
	c1.8-1.7,2.4-3.7,2.8-6.1c0.5-2.6,1.6-5,3.3-7c3.2-3.8,8.7-5.9,13.7-5.4c-1.1-2.1-1.7-3.8,0.5-4.7c2.7-1,5.8,0.6,7.8,2.7
	c1.1,1.1,2.1,2.4,3.2,3.6v-7.9C116.1,108.4,110,105.5,103.9,105.7z M100.5,106.1c-0.1,0.1-0.1,0.2-0.1,0.2
	C100.3,106.3,100.4,106.3,100.5,106.1z M92.4,122.3c0-0.3,0-0.6,0-0.9C92.4,121.7,92.4,122,92.4,122.3z M92.4,124.2
	c0-0.3,0-0.5,0-0.8C92.4,123.7,92.4,124,92.4,124.2z M104,106.9c-0.4,0.1-0.8,0.2-1.3,0.4c0.2-0.3,0.5-0.6,0.7-0.9
	C104,106.4,104.3,106.5,104,106.9z"/>
<linearGradient id="SVGID_13_" gradientUnits="userSpaceOnUse" x1="74.7298" y1="141.2006" x2="33.0881" y2="81.8305" gradientTransform="matrix(1 0 0 -1 0 238.4)">
	<stop  offset="0" style="stop-color:#75C4FD"/>
	<stop  offset="0.1001" style="stop-color:#82C3F7"/>
	<stop  offset="1" style="stop-color:#F1B9BE"/>
</linearGradient>
<path class="st20" d="M63.7,119.7c2,0.3,3.7,1.1,5.3,2.4c0-1.1,0-2.1,0-3.1c0.2-4.2-0.1-9.3-3.9-11c-2.1-1-4.6-0.5-6.8,0.2
	c-1.2,0.4-2.4,0.8-3.6,1v13.6c0.1-0.1,0.3-0.2,0.4-0.4C57.6,120.5,60.7,119.3,63.7,119.7z"/>
<linearGradient id="SVGID_14_" gradientUnits="userSpaceOnUse" x1="103.365" y1="107.9634" x2="119.874" y2="107.9634" gradientTransform="matrix(1 0 0 -1 0 238.4)">
	<stop  offset="0" style="stop-color:#FFE566"/>
	<stop  offset="1" style="stop-color:#FFB0EB"/>
</linearGradient>
<path class="st21" d="M119.9,115.8c-1.1-1.2-2.1-2.5-3.2-3.6c-2.1-2.1-5.1-3.8-7.8-2.7c-3.4,1.3-4.1,5.9-2.9,9.3
	c1.1,3.1,3.4,6.4,2.1,9.4c-0.8,1.9-2.8,3-3.9,4.8c-1.8,2.8-0.7,6.6,1.2,9.4c3.1,4.8,8.4,8.2,14,9.3c0.3-0.5,0.5-1,0.5-1.6
	L119.9,115.8L119.9,115.8z"/>
<path class="st22" d="M119.9,22.4v96.4c-3.8-4.7-9.9-7.7-15.9-7.5c-7.6,0.3-14.8,5.4-17.4,12.6c-2.8,6.8-10,8.2-13.8,6.2
	c-3.7-1.9-3.9-7-3.7-11.2c0.2-4.2-0.1-9.3-3.9-11c-2.1-1-4.6-0.5-6.8,0.2c-1.2,0.4-2.4,0.8-3.6,1V68.6c0.8,0.9,1.7,1.6,2.9,1.8
	c3.2,0.6,5.7-3.1,5.6-6.3c-0.1-3.2-1.7-6.2-2.3-9.4c-0.6-3.2,0.2-7.2,3.2-8.3c2.5-0.9,5.2,0.6,7.2,2.3c3.3,2.8,6,6.5,9.7,8.7
	c0.9,0.6,1.9,1,3,1.1c3.7,0.3,6-4.1,6.5-7.9c1.3-9.9-2.3-19.7-7.6-28.3L119.9,22.4L119.9,22.4z"/>
<linearGradient id="SVGID_15_" gradientUnits="userSpaceOnUse" x1="72.711" y1="236.2554" x2="72.711" y2="133.329" gradientTransform="matrix(1 0 0 -1 0 238.4)">
	<stop  offset="4.776980e-03" style="stop-color:#FFFFFF"/>
	<stop  offset="0.3219" style="stop-color:#E6E6E6"/>
	<stop  offset="0.75" style="stop-color:#808080"/>
</linearGradient>
<path class="st23" d="M90.4,50.6c-0.5,3.7-2.7,8.1-6.5,7.9c-1.1-0.1-2.1-0.6-3-1.1c-3.7-2.3-6.4-5.9-9.7-8.7c-2-1.7-4.7-3.2-7.2-2.3
	c-3,1.1-3.9,5.1-3.2,8.3c0.7,3.2,2.3,6.2,2.3,9.4c0.1,3.2-2.4,6.9-5.6,6.3c-1.1-0.2-2.1-0.9-2.9-1.8V22.4h28.1
	C88.1,30.9,91.8,40.8,90.4,50.6z"/>
<path class="st24" d="M166.8,104.9h-14.6v14.7h14.6V104.9z"/>
<linearGradient id="SVGID_16_" gradientUnits="userSpaceOnUse" x1="146.787" y1="127.1175" x2="152.216" y2="127.1175" gradientTransform="matrix(1 0 0 -1 0 238.4)">
	<stop  offset="0" style="stop-color:#75C4FD"/>
	<stop  offset="1" style="stop-color:#75C4FD"/>
</linearGradient>
<path class="st25" d="M152.2,119.6l-5.4-2.6V103l5.4,1.9V119.6z"/>
<linearGradient id="SVGID_17_" gradientUnits="userSpaceOnUse" x1="146.787" y1="134.451" x2="166.846" y2="134.451" gradientTransform="matrix(1 0 0 -1 0 238.4)">
	<stop  offset="0" style="stop-color:#75C4FD"/>
	<stop  offset="1" style="stop-color:#75C4FD"/>
</linearGradient>
<path class="st26" d="M159.8,103l7.1,1.9h-14.6l-5.4-1.9H159.8z"/>
<path class="st22" d="M162.4,112.5c0-0.1,0-0.3,0-0.4c0-0.1,0-0.3,0-0.4l0.9-0.7c0.1-0.1,0.1-0.2,0-0.3l-0.9-1.5
	c0-0.1-0.2-0.1-0.3-0.1l-1.1,0.4c-0.2-0.2-0.5-0.3-0.7-0.4l-0.2-1.1c0-0.1-0.1-0.2-0.2-0.2h-1.7c-0.1,0-0.2,0.1-0.2,0.2l-0.2,1.1
	c-0.3,0.1-0.5,0.2-0.7,0.4l-1.1-0.4c-0.1,0-0.2,0-0.3,0.1l-0.9,1.5c0,0.1,0,0.2,0,0.3l0.9,0.7c0,0.1,0,0.3,0,0.4c0,0.1,0,0.3,0,0.4
	l-0.9,0.7c-0.1,0.1-0.1,0.2,0,0.3l0.9,1.5c0,0.1,0.2,0.1,0.3,0.1l1.1-0.4c0.2,0.2,0.5,0.3,0.7,0.4l0.2,1.1c0,0.1,0.1,0.2,0.2,0.2
	h1.7c0.1,0,0.2-0.1,0.2-0.2l0.2-1.1c0.3-0.1,0.5-0.2,0.7-0.4l1.1,0.4c0.1,0,0.2,0,0.3-0.1l0.9-1.5c0-0.1,0-0.2,0-0.3L162.4,112.5z
	 M159.2,113.7c-0.9,0-1.6-0.7-1.6-1.6s0.7-1.6,1.6-1.6c0.9,0,1.6,0.7,1.6,1.6S160.1,113.7,159.2,113.7z"/>
<g>
	<g id="Shape_1_3_">
		<g>
			<path class="st27" d="M107.7,83.5c-4.7-27.4-40.6-22.1-41.2,0c2.1,1.1,3.4,1.7,3.4,1.7s-1.1,0.7-3.4,2.1c4.1,26.9,39.3,23,41.2,0
				c-2.2-1.4-3.5-2.1-3.5-2.1S105.3,84.7,107.7,83.5z M90.1,93.1l-3.4-5.8l-3.4,5.8l-2.6-0.2l4.9-8.2l-4.4-7.1l2.6-0.2l3.1,5.2
				l3.1-5l2.5,0.1l-4.1,7l4.5,8.4L90.1,93.1z"/>
		</g>
	</g>
	<g id="Shape_1_2_">
		<g>
			<path class="st28" d="M106,82.4c-6.4-24.4-35.8-17.8-37.9,0c4.1,2.3,5,2.8,5,2.8s-1.6,1-5,3.2c4.4,23.4,36.1,18.9,37.9,0
				c-3.2-2-5.1-3.2-5.1-3.2S105.2,82.9,106,82.4z M90.1,93.1l-3.4-5.8l-3.4,5.8l-2.6-0.2l4.9-8.2l-4.4-7.1l2.6-0.2l3.1,5.2l3.1-5
				l2.5,0.1l-4.1,7l4.5,8.4L90.1,93.1z"/>
		</g>
	</g>
</g>
<path class="st24" d="M25.1,135.4H10.6V150h14.5V135.4z"/>
<linearGradient id="SVGID_18_" gradientUnits="userSpaceOnUse" x1="10.5515" y1="105.549" x2="30.3278" y2="105.549" gradientTransform="matrix(1 0 0 -1 0 238.4)">
	<stop  offset="0" style="stop-color:#75C4FD"/>
	<stop  offset="1" style="stop-color:#75C4FD"/>
</linearGradient>
<path class="st29" d="M30.3,130.6l-5.2,4.8H10.6l1.7-1.4l4.5-3.6l0.2-0.2h0l0.5,0L30.3,130.6z"/>
<linearGradient id="SVGID_19_" gradientUnits="userSpaceOnUse" x1="25.0828" y1="98.073" x2="30.3278" y2="98.073" gradientTransform="matrix(1 0 0 -1 0 238.4)">
	<stop  offset="0" style="stop-color:#75C4FD"/>
	<stop  offset="1" style="stop-color:#75C4FD"/>
</linearGradient>
<path class="st30" d="M25.1,150l5.2-4.8v-14.6l-5.2,4.8V150z"/>
<path class="st22" d="M21.3,146.6c1.9-1.9,1.9-5,0-6.9c-1.9-1.9-5-2-6.9-0.1c-1.9,1.9-1.9,5,0,6.9C16.3,148.5,19.4,148.5,21.3,146.6
	z"/>
<path class="st24" d="M17.8,140.3c0,1.6-1.3,2.8-2.8,2.8c1.6,0,2.8,1.3,2.8,2.9c0-1.6,1.3-2.8,2.8-2.8
	C19.1,143.1,17.8,141.9,17.8,140.3z"/>
<linearGradient id="SVGID_20_" gradientUnits="userSpaceOnUse" x1="54.698" y1="89.4295" x2="75.457" y2="89.4295" gradientTransform="matrix(1 0 0 -1 0 238.4)">
	<stop  offset="0" style="stop-color:#FFE566"/>
	<stop  offset="1" style="stop-color:#FFB0EB"/>
</linearGradient>
<path class="st31" d="M67.9,145.3c-4.6-1.1-9.3,0.9-13.2,4v0.8c0,1.6,1.2,2.9,2.7,2.9h18.1c-0.1-0.1-0.1-0.2-0.2-0.4
	C73.2,148.7,71.9,146.2,67.9,145.3z"/>
<path class="st22" d="M119.8,74.1c0,0,0,0.1,0.1,0.1v-5.5c-0.2,0.9-0.3,1.8-0.4,2.7C119.3,72.4,119.3,73.4,119.8,74.1z"/>
<path class="st17" d="M68,32.1c-1.4,1.7-3.8,2-5.8,1.2c-1-0.4-1.9-1-2.8-1.8v-9.1h9c0.1,0.7,0.3,1.5,0.5,2.2
	C69.4,27.2,69.5,30.1,68,32.1z"/>
<linearGradient id="SVGID_21_" gradientUnits="userSpaceOnUse" x1="54.7112" y1="208.4677" x2="64.5508" y2="208.4677" gradientTransform="matrix(1 0 0 -1 0 238.4)">
	<stop  offset="0" style="stop-color:#FFE566"/>
	<stop  offset="1" style="stop-color:#FFB0EB"/>
</linearGradient>
<path class="st32" d="M63.3,35.9c1.6-1.9,1.4-4.9,0.9-7.5c-0.4-2-0.9-4-0.8-6h-8.7V30v5.2c0.9,0.7,1.8,1.4,2.8,1.8
	C59.5,37.8,61.9,37.6,63.3,35.9z"/>
<linearGradient id="SVGID_22_" gradientUnits="userSpaceOnUse" x1="112.983" y1="178.8443" x2="119.8538" y2="178.8443" gradientTransform="matrix(1 0 0 -1 0 238.4)">
	<stop  offset="0" style="stop-color:#FFE566"/>
	<stop  offset="1" style="stop-color:#FFB0EB"/>
</linearGradient>
<path class="st33" d="M119.9,66.4c-0.8-0.1-1.5-0.1-2.2-0.2c-1.3-0.1-2.8-0.4-3.7-1.3c-1.1-1.1-1.2-2.9-0.6-4.3
	c0.6-1.4,1.6-2.6,2.7-3.7c1.3-1.3,2.6-2.7,3.8-4.1V66.4z"/>
<linearGradient id="SVGID_23_" gradientUnits="userSpaceOnUse" x1="104.642" y1="69.7363" x2="117.636" y2="69.7363" gradientTransform="matrix(1 0 0 -1 0 238.4)">
	<stop  offset="0" style="stop-color:#FFE566"/>
	<stop  offset="1" style="stop-color:#FFB0EB"/>
</linearGradient>
<path class="st34" d="M117.1,172.5c-0.6,1.6-2.1,2.9-3.7,2.9c-1.2,0-2.2-0.7-3.1-1.6c-2-2-3.1-4.9-4.1-7.6c-0.5-1.4-1.1-2.9-1.6-4.3
	h12.6c0.2,1.9,0.3,3.7,0.3,5.6C117.7,169.2,117.7,171,117.1,172.5z"/>
<linearGradient id="SVGID_24_" gradientUnits="userSpaceOnUse" x1="90.8605" y1="88.0248" x2="101.375" y2="88.0248" gradientTransform="matrix(1 0 0 -1 0 238.4)">
	<stop  offset="0" style="stop-color:#FFE566"/>
	<stop  offset="1" style="stop-color:#FFB0EB"/>
</linearGradient>
<path class="st35" d="M101.4,153H90.9c0-0.1,0.1-0.2,0.1-0.4c0.6-1.8,1.5-3.8,3.3-4.6c1.8-0.7,3.8,0.1,5.1,1.6
	C100.3,150.6,100.9,151.7,101.4,153z"/>
<linearGradient id="SVGID_25_" gradientUnits="userSpaceOnUse" x1="80.0018" y1="74.0252" x2="88.7845" y2="74.0252" gradientTransform="matrix(1 0 0 -1 0 238.4)">
	<stop  offset="0" style="stop-color:#FFE566"/>
	<stop  offset="1" style="stop-color:#FFB0EB"/>
</linearGradient>
<path class="st36" d="M88.8,161.9c-0.3,2.2-1.2,4.9-3.3,5c-1.2,0-2.1-0.9-2.9-1.8c-0.9-1-1.8-2.1-2.6-3.2H88.8z"/>
<linearGradient id="SVGID_26_" gradientUnits="userSpaceOnUse" x1="37.3382" y1="98.284" x2="51.1357" y2="98.284" gradientTransform="matrix(1 0 0 -1 0 238.4)">
	<stop  offset="0" style="stop-color:#FFE566"/>
	<stop  offset="1" style="stop-color:#FFB0EB"/>
</linearGradient>
<path class="st37" d="M50.9,120.4c-2.9,2.6-6.1,5.1-8.1,8.4c-2.1,3.3-2.7,7.9-0.4,11c0.5,0.7,1.2,1.3,1.5,2.1
	c0.3,0.9,0.2,1.9-0.1,2.7c-1.5,4.5-6.3,7.7-6.4,12.4c0,0.8,0.1,1.6,0.6,2.1c1.3,1.6,3.9,0.4,5.5-0.9c2.6-2,5.1-4,7.7-6v-32.2
	C51,120.3,51,120.4,50.9,120.4z"/>
<linearGradient id="SVGID_27_" gradientUnits="userSpaceOnUse" x1="54.7066" y1="129.228" x2="57.4441" y2="129.228" gradientTransform="matrix(1 0 0 -1 0 238.4)">
	<stop  offset="0" style="stop-color:#FFE566"/>
	<stop  offset="1" style="stop-color:#FFB0EB"/>
</linearGradient>
<path class="st38" d="M54.7,102v14.4c1.2-1.7,2.2-3.5,2.6-5.5C57.9,107.7,56.8,104.4,54.7,102z"/>
<linearGradient id="SVGID_28_" gradientUnits="userSpaceOnUse" x1="101.5723" y1="58.0645" x2="109.6429" y2="58.7468" gradientTransform="matrix(1 0 0 -1 0 238.4)">
	<stop  offset="0" style="stop-color:#FFE566"/>
	<stop  offset="1" style="stop-color:#FFB0EB"/>
</linearGradient>
<path class="st39" d="M109.5,181.2c-0.3-0.9-0.6-1.7-1-2.5c-0.4-1.2-0.8-2.5-1.4-3.7c-0.6-1.2-1.4-2.8-2.8-3.1
	c-1.2-0.2-2.4,0.4-2.9,1.5c-0.5,1.2-0.3,2.7-0.1,3.9c0.4,2.4,1.2,4.7,2.2,6.9c0.6,1.2,1.3,2.6,2.5,3.5c1.1,0.8,2.3,0.4,3.1-0.7
	C110.3,185.2,110.1,183.2,109.5,181.2z"/>
<linearGradient id="SVGID_29_" gradientUnits="userSpaceOnUse" x1="136.5279" y1="213.5161" x2="157.7412" y2="213.5161" gradientTransform="matrix(1 0 0 -1 0 238.4)">
	<stop  offset="0" style="stop-color:#75C4FD"/>
	<stop  offset="0.1001" style="stop-color:#82C3F7"/>
	<stop  offset="1" style="stop-color:#F1B9BE"/>
</linearGradient>
<path class="st40" d="M156,15.5c-1.2,0.1-2.4,0.9-3.5,1.6c-1.3,0.8-2.5,1.8-3.6,2.8c-1.2,1-2.2,2-3.1,3.3c-1.4,1.8-2.8,3.7-4.4,5.2
	c0,0-0.1,0.1-0.1,0.1c-0.5,0.5-1.1,1-1.7,1.4c-0.2,0.1-0.3,0.3-0.3,0.4c-1,0.9-1.9,1.7-2.6,2.8c-0.3,0.4,0,0.9,0.4,1
	c1.6,0.6,3.3-0.6,4.4-1.6c1.5-1.3,2.8-2.9,4.1-4.4c0.5-0.6,1-1.2,1.6-1.7c0.7-0.6,1.5-1,2.2-1.5c1.9-1,3.9-2,5.6-3.3
	c1.4-1.1,2.5-2.5,2.6-4.3C157.8,16.3,157.2,15.4,156,15.5z"/>
<linearGradient id="SVGID_30_" gradientUnits="userSpaceOnUse" x1="123.669" y1="166.9451" x2="134.4657" y2="166.9451" gradientTransform="matrix(1 0 0 -1 0 238.4)">
	<stop  offset="0" style="stop-color:#FFE566"/>
	<stop  offset="1" style="stop-color:#FFB0EB"/>
</linearGradient>
<path class="st41" d="M134.4,69.7c-0.3-0.9-1.5-1.3-2.5-1.4c-2.8-0.5-5.5-1-8.3-1.4v9.4c3.2-1.6,6.7-2.8,8.5-3.6
	C133.3,72,134.8,70.9,134.4,69.7z"/>
<linearGradient id="SVGID_31_" gradientUnits="userSpaceOnUse" x1="165.79" y1="155.2788" x2="120.866" y2="155.2788" gradientTransform="matrix(1 0 0 -1 0 238.4)">
	<stop  offset="0" style="stop-color:#75C4FD"/>
	<stop  offset="0.1001" style="stop-color:#82C3F7"/>
	<stop  offset="1" style="stop-color:#F1B9BE"/>
</linearGradient>
<path class="st42" d="M116.6,84.8c0.4,1.6,1.7,2.5,3.2,3.1v-9.4C117.5,80.1,116,82.2,116.6,84.8z"/>
<linearGradient id="SVGID_32_" gradientUnits="userSpaceOnUse" x1="165.79" y1="141.4908" x2="120.866" y2="141.4908" gradientTransform="matrix(1 0 0 -1 0 238.4)">
	<stop  offset="0" style="stop-color:#75C4FD"/>
	<stop  offset="0.1001" style="stop-color:#82C3F7"/>
	<stop  offset="1" style="stop-color:#F1B9BE"/>
</linearGradient>
<path class="st43" d="M148.7,91.8c-0.3-0.7-1-1.1-1.7-1.5c-2.2-1-4.8-1.1-7.2-1.2c-5.2-0.2-10.4-0.4-15.5-0.5c-0.2,0-0.4,0-0.6,0
	v16.8c7.3-3.6,16-4.7,22.8-9.3C147.9,95,149.4,93.3,148.7,91.8z"/>
<path class="st11" d="M128.1,111h8.6c3.3,0,6-2.7,6-6v-5.7c0-3.3-2.7-6-6-6h-8.6c-3.2,0-5.7,2.6-5.7,5.8v6.3
	C122.3,108.4,124.9,111,128.1,111z"/>
<linearGradient id="SVGID_33_" gradientUnits="userSpaceOnUse" x1="165.673" y1="152.6239" x2="121.075" y2="152.6239" gradientTransform="matrix(1 0 0 -1 0 238.4)">
	<stop  offset="0" style="stop-color:#75C4FD"/>
	<stop  offset="0.1001" style="stop-color:#82C3F7"/>
	<stop  offset="1" style="stop-color:#F1B9BE"/>
</linearGradient>
<path class="st44" d="M160.6,85.7c-0.4-1.5-6.3-2.6-8.5-2.4c-1.8,0.1-4.4,0.4-5.3,2.4c-0.1,0.3-0.1,0.6,0,0.9
	c0.1,0.2,0.3,0.3,0.5,0.4c1.7,0.8,3.5,1.2,5.4,1.3c1.9,0.1,4,0.1,5.9-0.3C159.6,87.7,161,87.2,160.6,85.7z"/>
<linearGradient id="SVGID_34_" gradientUnits="userSpaceOnUse" x1="38.2138" y1="202.1165" x2="51.1237" y2="202.1165" gradientTransform="matrix(1 0 0 -1 0 238.4)">
	<stop  offset="0" style="stop-color:#FFE566"/>
	<stop  offset="1" style="stop-color:#FFB0EB"/>
</linearGradient>
<path class="st45" d="M51.1,31.3v19.3c-1-1-2-2-3-3.1c-3.1-3.3-6.3-7.1-6.4-11.7c0-1,0.1-2.1,0-3.1c-0.4-3.3-3.5-5.8-3.5-9.1
	c0-0.4,0.1-0.9,0.3-1.2c0.8-1,2.4-0.3,3.5,0.5C45.2,25.5,48.3,28.3,51.1,31.3z"/>
<linearGradient id="SVGID_35_" gradientUnits="userSpaceOnUse" x1="41.9948" y1="147.3025" x2="66.4626" y2="146.7077" gradientTransform="matrix(1 0 0 -1 0 238.4)">
	<stop  offset="0" style="stop-color:#75C4FD"/>
	<stop  offset="0.1001" style="stop-color:#82C3F7"/>
	<stop  offset="1" style="stop-color:#F1B9BE"/>
</linearGradient>
<path class="st46" d="M51.1,82.7v17.3c-0.7-0.5-1.6-0.8-2.4-1.1c-1.3-0.6-2.6-1.7-2.6-3.2c0-0.6,0.3-1.1,0.3-1.7
	c0.1-2.3-3.1-3.3-3.6-5.5c-0.3-1.4,0.6-2.8,1.8-3.6c1.2-0.8,2.7-1.1,4-1.4C49.5,83.2,50.3,83,51.1,82.7z"/>
<linearGradient id="SVGID_36_" gradientUnits="userSpaceOnUse" x1="54.706" y1="170.8569" x2="59.3055" y2="170.8569" gradientTransform="matrix(1 0 0 -1 0 238.4)">
	<stop  offset="0" style="stop-color:#FFE566"/>
	<stop  offset="1" style="stop-color:#FFB0EB"/>
</linearGradient>
<path class="st47" d="M56.5,65.4c-0.8-1.1-1.2-2.8-0.7-4c0.4-1.2,1.1-2.5,1-3.8c-0.1-1.4-1-2.6-2.1-3.6V81c1.7-1.1,3.2-2.6,4-4.5
	C60.2,72.9,58.8,68.6,56.5,65.4z"/>
<linearGradient id="SVGID_37_" gradientUnits="userSpaceOnUse" x1="131.2585" y1="79.5218" x2="141.0385" y2="85.1628" gradientTransform="matrix(1 0 0 -1 0 238.4)">
	<stop  offset="0" style="stop-color:#FFE566"/>
	<stop  offset="1" style="stop-color:#FFB0EB"/>
</linearGradient>
<path class="st48" d="M139.6,150.9c-0.7-0.8-1.8-1.4-2.7-1.8c-1.1-0.5-2.3-0.7-3.5-0.7c-1.3,0-2.6,0.4-3.5,1.4
	c-0.9,0.9-1.2,2.3-1,3.5c0.1,1.2,0.6,2.4,1.3,3.5c0.4,1.1,1.1,2.2,1.7,3.2c1,1.5,2.1,3.2,3.5,4.3c1.1,0.9,2.5,1.4,3.5,0.2
	c1-1.2,0.2-3-0.4-4.2c-0.7-1.4-1.7-2.8-2.2-4.3c-0.2-0.5-0.2-0.8,0.3-1.2c0.5-0.5,1.2-0.7,1.8-1
	C139.6,153.2,140.7,152.2,139.6,150.9z"/>
<linearGradient id="SVGID_38_" gradientUnits="userSpaceOnUse" x1="38.4747" y1="186.9859" x2="45.5859" y2="191.0293" gradientTransform="matrix(1 0 0 -1 0 238.4)">
	<stop  offset="0" style="stop-color:#FFE566"/>
	<stop  offset="1" style="stop-color:#FFB0EB"/>
</linearGradient>
<path class="st49" d="M48.6,54.1c0.4-1.3-0.6-2.6-1.5-3.5c-2.6-2.6-5.4-4.9-8.3-7.1c-0.3-0.2-0.7-0.5-1-0.5c-0.4,0-0.8,0.2-0.8,0.6
	c0,0.2,0.1,0.4,0.2,0.6c1.1,1.6,2.6,2.8,4.1,4.1c0.6,0.5,1.2,1,1.4,1.8c0.2,0.7,0,1.7-0.7,1.9c-1.2,0.4-2.8-0.3-2,1.6
	c0.3,0.8,1.4,1.5,2.2,1.8C43.7,56.1,47.9,56.3,48.6,54.1z"/>
<path class="st17" d="M102.9,25.2c0.8,0.1,1.6,0,2.4,0.3c1.5,0.8,1.4,3.1,2.8,4c0.8,0.5,1.8,0.4,2.6,0c0.8-0.4,1.4-1.1,2-1.8
	c1.3-1.6,2.3-3.4,3.2-5.3H99.9C100.2,23.8,101.4,25,102.9,25.2z"/>
<linearGradient id="SVGID_39_" gradientUnits="userSpaceOnUse" x1="78.7859" y1="207.1501" x2="119.862" y2="207.1501" gradientTransform="matrix(1 0 0 -1 0 238.4)">
	<stop  offset="0" style="stop-color:#FFE566"/>
	<stop  offset="1" style="stop-color:#FFB0EB"/>
</linearGradient>
<path class="st50" d="M119.9,22.4v8.8c-2.3,1.7-4.5,3.4-6.9,5c-1.6,1.1-3.2,2.1-4.9,3.1c-2.2,1.3-5.3,1.3-6.8-0.8
	c-0.9-1.2-1.1-2.9-1.5-4.4c-0.4-1.5-1.4-3.1-2.8-3.1c-1.3,0-2.3,1.2-3,2.5c-0.6,1.3-1.2,2.7-2.2,3.6c-1.3,1-3.1,0.7-4.5-0.2
	c-0.3-0.2-0.7-0.5-1-0.8c-0.9-0.9-1.6-2-2.2-3.1c-1.2-2-1.4-3.2-2.4-5.3c-0.9-1.7-1.8-3.5-2.8-5.1h21.1c0.4,1.4,1.6,2.6,3,2.8
	c0.8,0.1,1.6,0,2.4,0.3c1.5,0.8,1.4,3.1,2.8,4c0.8,0.5,1.8,0.4,2.6,0c0.8-0.4,1.4-1.1,2-1.8c1.3-1.6,2.3-3.4,3.2-5.3L119.9,22.4
	L119.9,22.4z"/>
<linearGradient id="SVGID_40_" gradientUnits="userSpaceOnUse" x1="112.0446" y1="129.9889" x2="119.861" y2="129.9889" gradientTransform="matrix(1 0 0 -1 0 238.4)">
	<stop  offset="0" style="stop-color:#FFE566"/>
	<stop  offset="1" style="stop-color:#FFB0EB"/>
</linearGradient>
<path class="st51" d="M116.9,102.4c-0.9-0.2-1.9-0.3-2.8-0.1c-0.9,0.2-1.8,0.9-2,1.8c-0.1,0.4-0.1,0.9,0,1.3c0.3,1.7,1.7,2.9,3,4.1
	c1.7,1.6,3.3,3.3,4.8,5.1v-11.3C118.9,102.9,117.9,102.6,116.9,102.4z"/>
<path class="st22" d="M63.2,130.6c-0.2-3.7-4.5-1.6-6.3-0.6c-0.7,0.4-1.5,0.8-2.2,1.3c0,0,0,0,0,0v11.4c1.7-2.3,3.4-4.8,5.5-6.7
	c0.8-0.8,1.8-1.6,2.4-2.6C63.1,132.6,63.3,131.5,63.2,130.6z"/>
<linearGradient id="SVGID_41_" gradientUnits="userSpaceOnUse" x1="86.2046" y1="199.6718" x2="112.983" y2="199.6718" gradientTransform="matrix(1 0 0 -1 0 238.4)">
	<stop  offset="0" style="stop-color:#75C4FD"/>
	<stop  offset="0.1001" style="stop-color:#82C3F7"/>
	<stop  offset="1" style="stop-color:#F1B9BE"/>
</linearGradient>
<path class="st52" d="M113,36.1c-0.6,0.5-1.2,1-1.8,1.5c-2.3,2.2-4.5,4.5-6.6,7c-1,1.2-2.7,2.6-4.1,1.8c-0.5-0.3-0.8-0.8-1-1.3
	c-0.5-1.1-0.6-2.3-0.8-3.5c-0.2-1.2-0.5-2.4-1.4-3.3c-0.8-0.9-2.3-1.2-3.2-0.5c-0.8,0.6-1,1.7-1.7,2.5c-1,1.2-2.9,1.3-4.2,0.5
	c-1.3-0.8-2.1-2.3-2.2-3.9c0-0.4,0-0.8,0-1.2c0.3,0.3,0.6,0.6,1,0.8c1.4,0.9,3.2,1.2,4.5,0.2c1.1-0.8,1.6-2.3,2.2-3.6
	c0.6-1.3,1.7-2.6,3-2.5c1.4,0,2.4,1.6,2.8,3.1c0.4,1.5,0.6,3.2,1.5,4.4c1.5,2.2,4.6,2.1,6.8,0.8C109.8,38.3,111.4,37.2,113,36.1z"/>
<path class="st22" d="M80.2,33.8c0.7,1.1,1.2,2.4,2.1,3.3c1.4,1.4,3.9,1.7,5.2,0.3c1.2-1.3,1-3.3,0.5-5c-0.7-2.7-1.9-5.2-3.6-7.4
	c-0.5-0.7-1.2-1.5-2-1.7C81.4,23,80,23.8,79.8,25c-0.3,1.3,0.6,2.5,0.6,3.8c0,0.9-0.5,1.6-0.7,2.5c-0.3,1.6,0.7,3.2,1.7,4.5"/>
<path class="st22" d="M83.1,45.8c0.7-0.2,0.7-2.2-0.1-4.5c-0.7-2.2-1.9-3.9-2.6-3.6c-0.7,0.2-0.7,2.2,0.1,4.5
	C81.2,44.4,82.4,46,83.1,45.8z"/>
<path class="st24" d="M34.6,75.2H21.5v13.1h13.1V75.2z"/>
<linearGradient id="SVGID_42_" gradientUnits="userSpaceOnUse" x1="34.6024" y1="156.6886" x2="39.3193" y2="156.6886" gradientTransform="matrix(1 0 0 -1 0 238.4)">
	<stop  offset="0" style="stop-color:#75C4FD"/>
	<stop  offset="1" style="stop-color:#75C4FD"/>
</linearGradient>
<path class="st53" d="M39.3,87l-4.7,1.2V75.2l4.7,1.3V87z"/>
<path class="st22" d="M32.6,86.2h-9c0-1.8,2-3.3,4.5-3.3C30.5,82.9,32.6,84.4,32.6,86.2z"/>
<path class="st22" d="M28.1,81.9c1.3,0,2.4-1.1,2.4-2.4c0-1.3-1.1-2.4-2.4-2.4c-1.3,0-2.4,1.1-2.4,2.4
	C25.7,80.8,26.7,81.9,28.1,81.9z"/>
<path class="st24" d="M162.3,45h-13.9v13.9h13.9V45z"/>
<linearGradient id="SVGID_43_" gradientUnits="userSpaceOnUse" x1="145.653" y1="185.6923" x2="148.404" y2="185.6923" gradientTransform="matrix(1 0 0 -1 0 238.4)">
	<stop  offset="0" style="stop-color:#75C4FD"/>
	<stop  offset="1" style="stop-color:#75C4FD"/>
</linearGradient>
<path class="st54" d="M145.7,60.5l2.8-1.6V45l-2.8,1.6V60.5z"/>
<linearGradient id="SVGID_44_" gradientUnits="userSpaceOnUse" x1="145.657" y1="178.7341" x2="162.276" y2="178.7341" gradientTransform="matrix(1 0 0 -1 0 238.4)">
	<stop  offset="0" style="stop-color:#75C4FD"/>
	<stop  offset="1" style="stop-color:#75C4FD"/>
</linearGradient>
<path class="st55" d="M148.4,58.9l-2.8,1.6h13.6l3-1.6H148.4z"/>
<path class="st22" d="M157.7,50.2c0.7,0,1.3-0.6,1.3-1.3c0-0.7-0.6-1.3-1.3-1.3c-0.7,0-1.3,0.6-1.3,1.3
	C156.5,49.7,157,50.2,157.7,50.2z"/>
<path class="st22" d="M153.6,53.1c0.7,0,1.3-0.6,1.3-1.3c0-0.7-0.6-1.3-1.3-1.3c-0.7,0-1.3,0.6-1.3,1.3
	C152.3,52.6,152.9,53.1,153.6,53.1z"/>
<path class="st22" d="M157.7,56.1c0.7,0,1.3-0.6,1.3-1.3c0-0.7-0.6-1.3-1.3-1.3c-0.7,0-1.3,0.6-1.3,1.3
	C156.5,55.6,157,56.1,157.7,56.1z"/>
<path class="st22" d="M157.4,55.1l-4.4-3.3l4.5-3.2l0.4,0.6l-3.7,2.6l3.7,2.7L157.4,55.1z"/>
<path class="st24" d="M9.3,56h13.9V42.1H9.3V56z"/>
<linearGradient id="SVGID_45_" gradientUnits="userSpaceOnUse" x1="23.142" y1="188.5634" x2="25.8935" y2="188.5634" gradientTransform="matrix(1 0 0 -1 0 238.4)">
	<stop  offset="0" style="stop-color:#75C4FD"/>
	<stop  offset="1" style="stop-color:#75C4FD"/>
</linearGradient>
<path class="st56" d="M25.9,57.6L23.1,56V42.1l2.8,1.6V57.6z"/>
<linearGradient id="SVGID_46_" gradientUnits="userSpaceOnUse" x1="9.2739" y1="181.5997" x2="25.8934" y2="181.5997" gradientTransform="matrix(1 0 0 -1 0 238.4)">
	<stop  offset="0" style="stop-color:#75C4FD"/>
	<stop  offset="1" style="stop-color:#75C4FD"/>
</linearGradient>
<path class="st57" d="M23.1,56l2.8,1.6H12.3l-3-1.6H23.1z"/>
<path class="st22" d="M20,52.7h-7.5c-0.4,0-0.8-0.3-0.8-0.8v-5.4H20c0.4,0,0.8,0.3,0.8,0.8V52C20.8,52.4,20.4,52.7,20,52.7z"/>
<path class="st22" d="M14.4,45.4h-2c-0.4,0-0.7,0.3-0.7,0.7v1.5h4.5L15,45.7C14.9,45.5,14.7,45.4,14.4,45.4z"/>
<linearGradient id="SVGID_47_" gradientUnits="userSpaceOnUse" x1="70.0523" y1="220.4184" x2="70.0523" y2="32.637" gradientTransform="matrix(1 0 0 -1 0 238.4)">
	<stop  offset="0" style="stop-color:#75C4FD"/>
	<stop  offset="1" style="stop-color:#75C4FD"/>
</linearGradient>
<path class="st58" d="M70.1,5.5c0.8,0,1.4-0.6,1.4-1.4s-0.6-1.4-1.4-1.4s-1.4,0.6-1.4,1.4S69.3,5.5,70.1,5.5z"/>
<linearGradient id="SVGID_48_" gradientUnits="userSpaceOnUse" x1="126.3279" y1="136.9539" x2="115.8289" y2="140.4247" gradientTransform="matrix(1 0 0 -1 0 238.4)">
	<stop  offset="0" style="stop-color:#75C4FD"/>
	<stop  offset="0.1001" style="stop-color:#82C3F7"/>
	<stop  offset="1" style="stop-color:#F1B9BE"/>
</linearGradient>
<path class="st59" d="M119.9,97.8v2.9c-2.2-0.3-3.8-1.1-3.7-1.8C116.2,98.1,117.8,97.7,119.9,97.8z"/>
</svg>
