<?xml version="1.0" encoding="utf-8"?>
<!-- Generator: Adobe Illustrator 25.0.1, SVG Export Plug-In . SVG Version: 6.00 Build 0)  -->
<svg version="1.1" xmlns="http://www.w3.org/2000/svg" xmlns:xlink="http://www.w3.org/1999/xlink" x="0px" y="0px"
	 viewBox="0 0 213 78" style="enable-background:new 0 0 213 78;" xml:space="preserve">
<style type="text/css">
	.st0{fill:none;}
	.st1{fill:none;stroke:#3098DC;}
	.st2{fill-rule:evenodd;clip-rule:evenodd;fill:#FEFEFE;}
	.st3{fill-rule:evenodd;clip-rule:evenodd;fill:#3098DC;}
	.st4{fill:#B7B5B1;}
	.st5{fill:#244B81;}
</style>
<g id="Layer_1">
	<g>
		<path class="st0" d="M0,0"/>
		<g>
			<path class="st1" d="M99.3,34l6.1,5.3l-6.1,5.3 M92,39.2h13.5"/>
		</g>
		<path class="st1" d="M0,0"/>
		<path class="st1" d="M0,0"/>
		<path class="st1" d="M0,0"/>
		<path class="st1" d="M0,0"/>
		<path class="st2" d="M119.8,64.7h82.4V5.9h-82.4L119.8,64.7z"/>
		<path class="st1" d="M119.8,64.7h82.4V5.9h-82.4L119.8,64.7z"/>
		<path class="st1" d="M0,0"/>
		<path class="st1" d="M0,0"/>
		<g>
			<path class="st1" d="M0,0"/>
		</g>
		<g>
			<g>
				<path class="st1" d="M68,69H4.7c-2,0-3.7-1.7-3.7-3.7V13.7C1,11.7,2.7,10,4.7,10H68c2,0,3.7,1.7,3.7,3.7v51.5
					C71.6,67.3,70,69,68,69z"/>
				<path class="st1" d="M68,17.5H4.7c-2,0-3.7-1.7-3.7-3.7C1,11.7,2.7,10,4.7,10H68c2,0,3.7,1.7,3.7,3.7 M68,17.5
					c2,0,3.7,1.7,3.7,3.7 M71.6,33.6h14.9v-3.7H71.6L71.6,33.6z M71.6,48.7h14.9V33.6H71.6L71.6,48.7z"/>
			</g>
			<path class="st3" d="M36.3,32.4L30,42.8l6.3,3.7l6.3-3.7L36.3,32.4z M36.2,47.8L29.9,44l6.3,8.9l6.3-8.9L36.2,47.8L36.2,47.8z"/>
			<path class="st1" d="M51.5,43c0-8.6-6.9-15.6-15.4-15.6s-15.4,7-15.4,15.6c0,8.6,6.9,15.6,15.4,15.6S51.5,51.6,51.5,43z"/>
		</g>
	</g>
</g>
<g id="Layer_2">
	<g id="Shape_1_3_">
		<g>
			<path class="st4" d="M178.2,33.4c-3.7-21.4-31.6-17.2-32.1,0c1.6,0.8,2.6,1.3,2.6,1.3s-0.9,0.5-2.6,1.6
				c3.2,20.9,30.6,17.9,32.1,0c-1.7-1.1-2.7-1.6-2.7-1.6S176.4,34.3,178.2,33.4z M164.5,40.9l-2.6-4.5l-2.7,4.5l-2-0.1l3.8-6.4
				l-3.4-5.5l2.1-0.2l2.4,4.1l2.4-3.9l1.9,0l-3.2,5.4l3.5,6.5L164.5,40.9z"/>
		</g>
	</g>
	<g id="Shape_1_2_">
		<g>
			<path class="st5" d="M176.9,32.6c-5-19-27.9-13.9-29.5,0c3.2,1.8,3.9,2.2,3.9,2.2s-1.2,0.8-3.9,2.5c3.4,18.3,28.1,14.7,29.5,0
				c-2.5-1.6-4-2.5-4-2.5S176.3,32.9,176.9,32.6z M164.5,40.9l-2.6-4.5l-2.7,4.5l-2-0.1l3.8-6.4l-3.4-5.5l2.1-0.2l2.4,4.1l2.4-3.9
				l1.9,0l-3.2,5.4l3.5,6.5L164.5,40.9z"/>
		</g>
	</g>
</g>
</svg>
