<?xml version="1.0" encoding="utf-8"?>
<!-- Generator: Adobe Illustrator 25.0.1, SVG Export Plug-In . SVG Version: 6.00 Build 0)  -->
<svg version="1.1" id="Layer_1" xmlns="http://www.w3.org/2000/svg" xmlns:xlink="http://www.w3.org/1999/xlink" x="0px" y="0px"
	 viewBox="0 0 297 101" style="enable-background:new 0 0 297 101;" xml:space="preserve">
<style type="text/css">
	.st0{fill:none;stroke:#3098DC;stroke-width:0.9966;stroke-miterlimit:3.9866;}
	.st1{fill-rule:evenodd;clip-rule:evenodd;fill:#FEFEFE;}
	.st2{fill-rule:evenodd;clip-rule:evenodd;fill:#D9F0FF;}
	.st3{fill:#B7B5B1;}
	.st4{fill:#244B81;}
	.st5{fill:#3098DC;}
	.st6{fill:#D9F0FF;stroke:#3098DC;stroke-width:0.9966;stroke-miterlimit:3.9866;}
	.st7{fill:#1F5AFF;}
</style>
<path class="st0" d="M94.1,49l-6.3,5.5l6.3,5.5 M101.7,54.4h-14 M168,49l6.3,5.5L168,60 M160.5,54.4h14"/>
<path class="st1" d="M286.5,92.4h-84c-1,0-1.9-0.4-2.6-1.1c-0.7-0.7-1.1-1.6-1.1-2.6V20.8c0-1,0.4-1.9,1.1-2.6
	c0.7-0.7,1.6-1.1,2.6-1.1h84c1,0,1.9,0.4,2.6,1.1c0.7,0.7,1.1,1.6,1.1,2.6v67.9c0,1-0.4,1.9-1.1,2.6C288.5,92,287.5,92.4,286.5,92.4
	"/>
<path class="st0" d="M286.5,92.4h-84c-1,0-1.9-0.4-2.6-1.1c-0.7-0.7-1.1-1.6-1.1-2.6V20.8c0-1,0.4-1.9,1.1-2.6
	c0.7-0.7,1.6-1.1,2.6-1.1h84c1,0,1.9,0.4,2.6,1.1c0.7,0.7,1.1,1.6,1.1,2.6v67.9c0,1-0.4,1.9-1.1,2.6C288.5,92,287.5,92.4,286.5,92.4
	z"/>
<path class="st2" d="M294.8,92.9H194.6c-0.7,0-1.2-0.5-1.2-1.2v-4.5c0-0.7,0.6-1.2,1.2-1.2h100.2c0.7,0,1.2,0.6,1.2,1.2v4.5
	C296,92.3,295.5,92.9,294.8,92.9z"/>
<path class="st0" d="M294.8,92.9H194.6c-0.7,0-1.2-0.5-1.2-1.2v-4.5c0-0.7,0.6-1.2,1.2-1.2h100.2c0.7,0,1.2,0.6,1.2,1.2v4.5
	C296,92.3,295.5,92.9,294.8,92.9z"/>
<path class="st1" d="M203.2,80.9h83V22h-83V80.9z"/>
<path class="st0" d="M203.2,80.9h83V22h-83V80.9z"/>
<path class="st1" d="M247.2,68.7h-5.1c-0.1,0-0.2,0-0.2-0.1l-3-2.1l-1.3-1.1l-7.3,2c-0.2,0.1-0.5-0.1-0.5-0.3l-2.1-7.4
	c0-0.1,0-0.2,0-0.3l2.3-7.1l-1.4-1.6c0,0-0.1-0.1-0.1-0.2c0-0.1,0-0.2,0-0.3c0-0.1,0.1-0.1,0.1-0.1l0.2-0.2l-0.7-0.6
	c-0.1-0.1-0.2-0.3-0.1-0.5c0-0.1,0.1-0.1,0.1-0.1l0.4-0.3l-0.6-0.5c-0.1-0.1-0.2-0.2-0.2-0.4c0-0.1,0.1-0.3,0.2-0.3l0.5-0.3
	l-1.1-5.2c0-0.1,0-0.2,0-0.2l1.7-5c0.1-0.2,0.2-0.3,0.4-0.3c0.1,0,0.1,0,0.2,0l10.7,4h8.9l10.7-4c0.1,0,0.2,0,0.3,0
	c0.1,0.1,0.2,0.1,0.2,0.3l1.7,5c0,0.1,0,0.2,0,0.2l-1.1,5.2l0.4,0.3c0.2,0.1,0.2,0.4,0.1,0.6c0,0,0,0.1-0.1,0.1l-0.6,0.5l0.4,0.3
	c0.2,0.2,0.2,0.4,0.1,0.6c0,0,0,0,0,0.1l-0.7,0.6l0.2,0.2c0.1,0.1,0.2,0.2,0.2,0.3c0,0.1,0,0.2-0.1,0.3l-1.4,1.6l2.3,7.1
	c0,0.1,0,0.2,0,0.3l-2.1,7.4c-0.1,0.2-0.3,0.4-0.5,0.3l-7.3-2l-1.4,1.1l-3,2.1C247.3,68.6,247.3,68.7,247.2,68.7"/>
<g id="Layer_2">
	<g id="Shape_1_3_">
		<g>
			<path class="st3" d="M262.4,50.7c-4.1-23.7-35-19.1-35.6,0c1.8,0.9,2.9,1.5,2.9,1.5s-0.9,0.6-2.9,1.8c3.6,23.2,34,19.9,35.6,0
				c-1.9-1.2-3-1.8-3-1.8S260.3,51.8,262.4,50.7z M247.2,59l-2.9-5l-3,5l-2.2-0.2l4.2-7.1l-3.8-6.1l2.3-0.2l2.7,4.5l2.7-4.3l2.1,0.1
				l-3.5,6l3.9,7.2L247.2,59z"/>
		</g>
	</g>
	<g id="Shape_1_2_">
		<g>
			<path class="st4" d="M261,49.8c-5.5-21.1-31-15.4-32.7,0c3.5,2,4.3,2.5,4.3,2.5s-1.4,0.9-4.3,2.8c3.8,20.3,31.2,16.4,32.7,0
				c-2.8-1.7-4.4-2.7-4.4-2.7S260.3,50.2,261,49.8z M247.2,59l-2.9-5l-3,5l-2.2-0.2l4.2-7.1l-3.8-6.1l2.3-0.2l2.7,4.5l2.7-4.3
				l2.1,0.1l-3.5,6l3.9,7.2L247.2,59z"/>
		</g>
	</g>
</g>
<path class="st5" d="M115.6,48.7h7.8c1.1,0,1.9-0.9,1.9-1.9V39c0-1.1-0.9-1.9-1.9-1.9h-7.8c-1.1,0-1.9,0.9-1.9,1.9v7.8
	C113.6,47.8,114.5,48.7,115.6,48.7z M117.5,40.9h3.9v3.9h-3.9V40.9L117.5,40.9z M114.6,56.4h1.9c0.5,0,1-0.4,1-1l0,0v-1.9
	c0-0.5-0.4-1-1-1l0,0h-1.9c-0.5,0-1,0.4-1,1l0,0v1.9C113.6,56,114.1,56.4,114.6,56.4z M123.3,60.3h-7.8c-1.1,0-1.9,0.9-1.9,1.9V70
	c0,1.1,0.9,1.9,1.9,1.9h7.8c1.1,0,1.9-0.9,1.9-1.9v-7.8C125.2,61.2,124.4,60.3,123.3,60.3L123.3,60.3z M121.4,68.1h-3.9v-3.9h3.9
	V68.1L121.4,68.1z M141.7,71.9h5.8c0.5,0,1-0.4,1-1l0,0v-5.8c0-0.5-0.4-1-1-1l0,0h-1.9c-0.5,0-1,0.4-1,1l0,0v2.9h-3.9V71
	C140.7,71.5,141.2,71.9,141.7,71.9L141.7,71.9z M146.6,37h-7.8c-1.1,0-1.9,0.9-1.9,1.9v7.8c0,1.1,0.9,1.9,1.9,1.9h7.8
	c1.1,0,1.9-0.9,1.9-1.9V39C148.5,37.9,147.6,37,146.6,37z M144.6,44.8h-3.9v-3.9h3.9V44.8z M122.3,52.5c-0.5,0-1,0.4-1,1l0,0v1.9
	c0,0.5,0.4,1,1,1h6.8v-3.9C129.1,52.5,122.3,52.5,122.3,52.5z M129.1,59.3c0,0.5,0.4,1,1,1h2.9v2.9c0,0.5,0.4,1,1,1h2.9v-7.8h-7.8
	L129.1,59.3L129.1,59.3z M129.1,69V71c0,0.5,0.4,1,1,1h5.8c0.5,0,1-0.4,1-1l0,0v-2.9h-6.8C129.6,68.1,129.1,68.5,129.1,69L129.1,69
	L129.1,69z M147.5,52.5h-9.7c-0.5,0-1,0.4-1,1v2.9h3.9v2.9c0,0.5,0.4,1,1,1h1.9c0.5,0,1-0.4,1-1l0,0v-2.9h2.9c0.5,0,1-0.4,1-1l0,0
	v-1.9C148.5,53,148.1,52.5,147.5,52.5L147.5,52.5z M140.7,68.1v-3.9h-3.9v3.9L140.7,68.1L140.7,68.1z M130.1,44.8h1.9
	c0.5,0,1-0.4,1-1l0,0V38c0-0.5-0.4-1-1-1l0,0h-1.9c-0.5,0-1,0.4-1,1l0,0v5.8C129.1,44.4,129.6,44.8,130.1,44.8z M133,51.6v-1.9
	c0-0.5-0.4-1-1-1l0,0h-1.9c-0.5,0-1,0.4-1,1l0,0v2.9h2.9C132.6,52.6,133,52.1,133,51.6C133,51.6,133,51.6,133,51.6L133,51.6z"/>
<circle class="st6" cx="31.9" cy="54" r="31.4"/>
<path class="st5" d="M85.7,16.9l-10,6l-10-6l10-16.8L85.7,16.9z M75.7,24.8l-10-6l10,14.2l10-14.2L75.7,24.8L75.7,24.8z M77.7,100.8
	c-0.1,0-0.3,0-0.3-0.1c0,0,0-0.1,0-0.1v-1.2l0-4.2c0-0.6-0.5-1.1-1.1-1.1h-1.8c-2,0-3.7-1.6-3.7-3.6c0-2,1.6-3.7,3.7-3.7H78
	c0.8,0,1.4-0.6,1.5-1.4c0-0.8-0.6-1.4-1.4-1.5c0,0,0,0,0,0l-1.7,0c-1.8,0-3.3-1.5-3.3-3.3v-2.1c-0.7,0.4-1.7,0.8-2.6,1.2
	c-1.1,0.5-2.4,0.9-3.2,1.1c-0.1,1.7-0.3,5.8,0,8.9c0.2,1.7,1,3.6,2.3,5.1c1.3,1.6,3,2.8,4.8,3.4c0.4,0.1,0.8,0.6,0.8,1.1v1.2
	c0,0.2-0.2,0.3-0.3,0.2l-1.2-0.4c-2.2-0.8-4.2-2.2-5.8-4.1c-1.6-1.9-2.6-4.2-2.8-6.3c-0.4-4.1,0-9.8,0-10l0.1-0.8l0.7-0.2
	c0,0,2.1-0.6,3.7-1.3c2-0.8,4-2,4-2l1.3-0.8c0.1-0.1,0.3,0,0.3,0.1c0,0,0,0.1,0,0.1v5.5c0,0.6,0.5,1.1,1.1,1.1l1.7,0
	c2,0,3.7,1.7,3.7,3.7c0,2-1.7,3.6-3.7,3.6h-3.5c-0.8,0-1.4,0.6-1.5,1.4c0,0.8,0.6,1.4,1.4,1.5c0,0,0,0,0,0h1.8
	c1.8,0,3.3,1.5,3.3,3.3l0,2.5c1.3-0.7,2.4-1.6,3.4-2.8c1.3-1.6,2.2-3.4,2.3-5.2c0.3-3.1,0.1-7.2,0-8.8c-0.8-0.2-2.1-0.7-3.2-1.1
	c-2-0.8-3.9-1.9-4.2-2.1c-0.4-0.2-0.6-0.6-0.6-1v-1.5c0-0.2,0.2-0.3,0.4-0.2l1.3,0.8c0,0,2,1.2,4,2c1.5,0.7,3.7,1.3,3.7,1.3l0.7,0.2
	l0.1,0.8c0,0.2,0.5,5.8,0,10c-0.5,4.5-4.1,8.9-8.7,10.5L77.7,100.8L77.7,100.8z"/>
<path d="M34.4,40.5H19.4L16.9,62h7.5L34.4,40.5z"/>
<path class="st7" d="M47.3,47h-7.5l-10,21.4h14.9L47.3,47z"/>
</svg>
